<svg width="30" height="30" viewBox="0 0 30 30" fill="none" xmlns="http://www.w3.org/2000/svg">
<path fill-rule="evenodd" clip-rule="evenodd" d="M11.7968 4.05134C12.2688 2.84706 13.4405 2 14.8076 2C16.1748 2 17.3465 2.84706 17.8184 4.05134C17.9227 4.31742 17.8667 4.61963 17.674 4.83068C17.4813 5.04173 17.1855 5.12494 16.911 5.04526C16.5561 4.94222 16.1961 4.86395 15.8299 4.81955L15.8271 4.81921C14.7227 4.68116 13.6759 4.76279 12.7045 5.04519C12.43 5.12497 12.1341 5.04182 11.9413 4.83077C11.7486 4.61972 11.6926 4.31746 11.7968 4.05134Z" fill="#F5F5F5"/>
<path fill-rule="evenodd" clip-rule="evenodd" d="M11.8076 24.1504C11.8076 24.9679 12.1474 25.7295 12.6879 26.2701C13.2285 26.8106 13.9901 27.1504 14.8076 27.1504C16.4559 27.1504 17.8076 25.7987 17.8076 24.1504H19.3076C19.3076 26.6271 17.2843 28.6504 14.8076 28.6504C13.5751 28.6504 12.4368 28.1402 11.6273 27.3307C10.8178 26.5212 10.3076 25.3829 10.3076 24.1504H11.8076Z" fill="#F5F5F5"/>
<path fill-rule="evenodd" clip-rule="evenodd" d="M14.8076 3.21289C10.2559 3.21289 6.55758 6.91118 6.55758 11.4629V15.0754C6.55758 15.3663 6.49275 15.7766 6.37397 16.2045C6.25545 16.6314 6.09988 17.016 5.95165 17.265L5.95087 17.2663L4.51505 19.651L4.51494 19.6512C3.96515 20.5649 3.8552 21.5802 4.18706 22.4764C4.51859 23.3718 5.26222 24.0707 6.26713 24.4108L6.26991 24.4117C11.8113 26.2631 17.7902 26.2633 23.3316 24.4121C25.3024 23.7598 26.1587 21.4363 25.0882 19.652L25.0876 19.651L23.654 17.27C23.5095 17.0178 23.3569 16.6322 23.2402 16.2067C23.1225 15.7772 23.0576 15.3665 23.0576 15.0754V13.7789C22.5947 14.0158 22.09 14.1827 21.5576 14.2655V15.0754C21.5576 15.5468 21.6552 16.0985 21.7937 16.6034C21.9324 17.1092 22.1283 17.6272 22.3579 18.0252L22.3578 18.0252L22.3651 18.0372L23.802 20.4238C24.3812 21.3892 23.9131 22.64 22.8597 22.9883L22.8574 22.989C17.6246 24.7374 11.9794 24.7375 6.74647 22.9895C6.12731 22.7794 5.75268 22.3849 5.59372 21.9556C5.43495 21.5268 5.4625 20.9858 5.80022 20.4246L7.2376 18.0372L7.23761 18.0373L7.23929 18.0344C7.47833 17.6335 7.67866 17.1124 7.81931 16.6057C7.9599 16.0992 8.05758 15.547 8.05758 15.0754V11.4629C8.05758 7.7396 11.0843 4.71289 14.8076 4.71289C15.8469 4.71289 16.8336 4.95132 17.7156 5.37616C18.1835 5.01223 18.7177 4.72963 19.2972 4.54958C18.0032 3.70483 16.4603 3.21289 14.8076 3.21289Z" fill="#F5F5F5"/>
<path d="M23.7827 9.3252C23.7827 10.982 22.4396 12.3252 20.7827 12.3252C19.1259 12.3252 17.7827 10.982 17.7827 9.3252C17.7827 7.66834 19.1259 6.3252 20.7827 6.3252C22.4396 6.3252 23.7827 7.66834 23.7827 9.3252Z" fill="#8DD01A"/>
<path fill-rule="evenodd" clip-rule="evenodd" d="M20.7827 7.0752C19.5401 7.0752 18.5327 8.08255 18.5327 9.3252C18.5327 10.5678 19.5401 11.5752 20.7827 11.5752C22.0254 11.5752 23.0327 10.5678 23.0327 9.3252C23.0327 8.08255 22.0254 7.0752 20.7827 7.0752ZM17.0327 9.3252C17.0327 7.25413 18.7116 5.5752 20.7827 5.5752C22.8538 5.5752 24.5327 7.25413 24.5327 9.3252C24.5327 11.3963 22.8538 13.0752 20.7827 13.0752C18.7116 13.0752 17.0327 11.3963 17.0327 9.3252Z" fill="#8DD01A"/>
</svg>
