<svg width="81" height="24" viewBox="0 0 81 24" fill="none" xmlns="http://www.w3.org/2000/svg">
<path d="M0.24 0.735998H11.44C13.0827 0.735998 14.4693 1.056 15.6 1.696C16.7307 2.31467 17.5733 3.168 18.128 4.256C18.704 5.344 18.992 6.56 18.992 7.904C18.992 9.44 18.6507 10.8267 17.968 12.064C17.3067 13.3013 16.2827 14.2827 14.896 15.008C13.5307 15.712 11.856 16.064 9.872 16.064H4.72V24H0.24V0.735998ZM10.096 12.352C12.9333 12.352 14.352 10.9867 14.352 8.256C14.352 5.78133 13.0507 4.544 10.448 4.544H4.72V12.352H10.096ZM22.365 0.735998H26.845V20.16H38.397V24H22.365V0.735998ZM44.9585 14.688L36.2865 0.735998H41.6945L45.6945 7.584L47.2945 10.624H47.4545L49.0545 7.584L52.9905 0.735998H58.2705L49.5985 14.496V24H44.9585V14.688ZM67.396 14.688L58.724 0.735998H64.132L68.132 7.584L69.732 10.624H69.892L71.492 7.584L75.428 0.735998H80.708L72.036 14.496V24H67.396V14.688Z" fill="#F5F5F5"/>
</svg>
