<svg width="58" height="58" viewBox="0 0 58 58" fill="none" xmlns="http://www.w3.org/2000/svg">
<rect x="0.5" y="0.5" width="57" height="57" rx="28.5" stroke="#F5F5F5"/>
<path d="M49.4964 22.0422C49.4247 24.5287 48.4023 26.8932 46.6396 28.6485L40.4349 34.8567C39.5313 35.7654 38.4564 36.4857 37.2724 36.9761C36.0885 37.4665 34.819 37.7171 33.5375 37.7136H33.5286C32.2252 37.7126 30.9353 37.4505 29.7349 36.9427C28.5346 36.4349 27.4482 35.6916 26.5399 34.7569C25.6316 33.8221 24.9199 32.7148 24.4467 31.5004C23.9736 30.2859 23.7486 28.989 23.7851 27.6861C23.7957 27.3073 23.9565 26.9482 24.2319 26.6879C24.5073 26.4275 24.8748 26.2873 25.2537 26.2979C25.6325 26.3086 25.9916 26.4693 26.2519 26.7447C26.5123 27.0201 26.6526 27.3877 26.6419 27.7665C26.6159 28.6877 26.7748 29.6047 27.1092 30.4635C27.4436 31.3222 27.9468 32.1052 28.589 32.7662C29.2311 33.4272 29.9993 33.9527 30.848 34.3118C31.6967 34.6709 32.6088 34.8562 33.5304 34.8567C34.4363 34.859 35.3336 34.6817 36.1706 34.335C37.0076 33.9884 37.7675 33.4794 38.4066 32.8373L44.6113 26.6327C45.8914 25.3364 46.6067 23.5863 46.601 21.7645C46.5953 19.9427 45.8691 18.1971 44.5808 16.9089C43.2926 15.6207 41.547 14.8944 39.7252 14.8887C37.9034 14.883 36.1533 15.5983 34.857 16.8785L32.893 18.8425C32.6229 19.0991 32.2633 19.24 31.8908 19.2352C31.5184 19.2305 31.1625 19.0804 30.8991 18.817C30.6357 18.5536 30.4856 18.1977 30.4808 17.8252C30.4761 17.4528 30.617 17.0932 30.8736 16.8231L32.8376 14.8591C33.7437 13.9526 34.8196 13.2336 36.0037 12.743C37.1878 12.2524 38.4569 11.9999 39.7386 11.9999C41.0203 11.9999 42.2894 12.2524 43.4735 12.743C44.6576 13.2336 45.7335 13.9526 46.6396 14.8591C47.5782 15.7999 48.3154 16.922 48.8066 18.1569C49.2977 19.3918 49.5324 20.7137 49.4964 22.0422ZM26.1062 39.4384L24.1422 41.4024C23.5016 42.0474 22.7393 42.5585 21.8994 42.9061C21.0595 43.2537 20.1589 43.4308 19.2499 43.4272C17.8863 43.4261 16.5536 43.0208 15.4203 42.2626C14.2869 41.5044 13.4037 40.4273 12.8823 39.1674C12.3608 37.9074 12.2245 36.5212 12.4906 35.1838C12.7567 33.8464 13.4132 32.6179 14.3772 31.6535L20.5712 25.4489C21.5467 24.4682 22.7947 23.8035 24.1529 23.5411C25.5111 23.2787 26.9168 23.4307 28.1875 23.9775C29.4582 24.5243 30.5351 25.4405 31.2784 26.6072C32.0216 27.7738 32.3969 29.137 32.3555 30.5197C32.3449 30.8986 32.4851 31.2661 32.7455 31.5415C33.0058 31.817 33.3649 31.9777 33.7438 31.9883C34.1226 31.999 34.4901 31.8587 34.7656 31.5984C35.041 31.338 35.2017 30.9789 35.2123 30.6001C35.2466 29.2737 35.0111 27.9542 34.52 26.7215C34.0289 25.4889 33.2925 24.3689 32.3555 23.4295C30.5257 21.6005 28.0444 20.573 25.4572 20.573C22.87 20.573 20.3887 21.6005 18.5589 23.4295L12.3578 29.6341C10.9941 30.9973 10.0651 32.7341 9.68816 34.6251C9.31123 36.5161 9.50331 38.4764 10.2401 40.2583C10.977 42.0401 12.2254 43.5636 13.8278 44.6361C15.4302 45.7086 17.3146 46.2821 19.2428 46.284C20.5245 46.2877 21.7943 46.0371 22.9785 45.5467C24.1628 45.0564 25.238 44.3359 26.142 43.4272L28.106 41.4631C28.3372 41.1908 28.4579 40.8418 28.4445 40.4849C28.4311 40.128 28.2844 39.7891 28.0334 39.5349C27.7824 39.2808 27.4453 39.1299 27.0886 39.1121C26.7319 39.0942 26.3814 39.2106 26.1062 39.4384Z" fill="#F5F5F5"/>
</svg>
