<svg width="390" height="191" viewBox="0 0 390 191" fill="none" xmlns="http://www.w3.org/2000/svg">
<rect width="390" height="191" fill="#333333"/>
<path d="M34.24 40.736H45.44C47.0827 40.736 48.4693 41.056 49.6 41.696C50.7307 42.3147 51.5733 43.168 52.128 44.256C52.704 45.344 52.992 46.56 52.992 47.904C52.992 49.44 52.6507 50.8267 51.968 52.064C51.3067 53.3013 50.2827 54.2827 48.896 55.008C47.5307 55.712 45.856 56.064 43.872 56.064H38.72V64H34.24V40.736ZM44.096 52.352C46.9333 52.352 48.352 50.9867 48.352 48.256C48.352 45.7813 47.0507 44.544 44.448 44.544H38.72V52.352H44.096ZM56.365 40.736H60.845V60.16H72.397V64H56.365V40.736ZM78.9585 54.688L70.2865 40.736H75.6945L79.6945 47.584L81.2945 50.624H81.4545L83.0545 47.584L86.9905 40.736H92.2705L83.5985 54.496V64H78.9585V54.688ZM101.396 54.688L92.724 40.736H98.132L102.132 47.584L103.732 50.624H103.892L105.492 47.584L109.428 40.736H114.708L106.036 54.496V64H101.396V54.688Z" fill="#F5F5F5"/>
<path d="M126 51C126 47.229 126 45.343 127.172 44.172C128.343 43 130.229 43 134 43H136C139.771 43 141.657 43 142.828 44.172C144 45.343 144 47.229 144 51V53C144 56.771 144 58.657 142.828 59.828C141.657 61 139.771 61 136 61H134C130.229 61 128.343 61 127.172 59.828C126 58.657 126 56.771 126 53V51Z" stroke="#F5F5F5" stroke-width="2"/>
<path d="M140.5 47.5C140.5 48.0523 140.052 48.5 139.5 48.5C138.948 48.5 138.5 48.0523 138.5 47.5C138.5 46.9477 138.948 46.5 139.5 46.5C140.052 46.5 140.5 46.9477 140.5 47.5Z" fill="black" stroke="#F5F5F5"/>
<path d="M135 55C136.657 55 138 53.6569 138 52C138 50.3431 136.657 49 135 49C133.343 49 132 50.3431 132 52C132 53.6569 133.343 55 135 55Z" stroke="#F5F5F5" stroke-width="2"/>
<path d="M163 42C161.687 42 160.386 42.2587 159.173 42.7612C157.96 43.2638 156.858 44.0003 155.929 44.9289C154.054 46.8043 153 49.3478 153 52C153 56.42 155.87 60.17 159.84 61.5C160.34 61.58 160.5 61.27 160.5 61V59.31C157.73 59.91 157.14 57.97 157.14 57.97C156.68 56.81 156.03 56.5 156.03 56.5C155.12 55.88 156.1 55.9 156.1 55.9C157.1 55.97 157.63 56.93 157.63 56.93C158.5 58.45 159.97 58 160.54 57.76C160.63 57.11 160.89 56.67 161.17 56.42C158.95 56.17 156.62 55.31 156.62 51.5C156.62 50.39 157 49.5 157.65 48.79C157.55 48.54 157.2 47.5 157.75 46.15C157.75 46.15 158.59 45.88 160.5 47.17C161.29 46.95 162.15 46.84 163 46.84C163.85 46.84 164.71 46.95 165.5 47.17C167.41 45.88 168.25 46.15 168.25 46.15C168.8 47.5 168.45 48.54 168.35 48.79C169 49.5 169.38 50.39 169.38 51.5C169.38 55.32 167.04 56.16 164.81 56.41C165.17 56.72 165.5 57.33 165.5 58.26V61C165.5 61.27 165.66 61.59 166.17 61.5C170.14 60.16 173 56.42 173 52C173 50.6868 172.741 49.3864 172.239 48.1732C171.736 46.9599 171 45.8575 170.071 44.9289C169.142 44.0003 168.04 43.2638 166.827 42.7612C165.614 42.2587 164.313 42 163 42Z" fill="#F5F5F5"/>
<path d="M43.032 74.842V76.41H33.988V74.842H43.032ZM32.658 80.05H44.362V81.436H32.658V80.05ZM34.03 78.076H35.598L35.472 77.376V76.704H37.404V78.076H38.02C38.776 78.076 39.336 78.0713 39.7 78.062V76.704H41.632V77.334L41.506 77.992C42.0287 77.9453 42.458 77.8847 42.794 77.81L43.144 79.294C42.4347 79.4247 41.6367 79.5087 40.75 79.546C39.8633 79.574 38.5987 79.588 36.956 79.588H34.03V78.076ZM34.268 84.068H40.806V83.508H34.268V81.996H42.766V85.412H36.228V86H39.798C40.694 86 41.3427 85.986 41.744 85.958C42.1547 85.93 42.5047 85.8553 42.794 85.734L43.214 87.232C42.9527 87.3533 42.5467 87.428 41.996 87.456C41.4453 87.4933 40.7453 87.512 39.896 87.512H34.268V84.068ZM52.5056 75.64V80.68H48.0956V82.85C49.281 82.85 50.3263 82.8173 51.2316 82.752C52.1463 82.6867 52.907 82.5513 53.5136 82.346L53.9336 83.956C53.019 84.3107 51.0776 84.488 48.1096 84.488H46.1356V79.042H50.5456V77.278H46.2616V75.64H52.5056ZM54.7456 74.744H56.7056V87.246H54.7456V74.744Z" fill="#F5F5F5"/>
<path d="M76.884 78.228C76.884 77.812 77.016 77.444 77.28 77.124C77.552 76.796 77.96 76.54 78.504 76.356C79.048 76.164 79.72 76.068 80.52 76.068C81.32 76.068 81.988 76.164 82.524 76.356C83.068 76.54 83.472 76.796 83.736 77.124C84.008 77.444 84.144 77.812 84.144 78.228C84.144 78.876 83.836 79.4 83.22 79.8C82.604 80.192 81.704 80.388 80.52 80.388C79.72 80.388 79.048 80.296 78.504 80.112C77.96 79.92 77.552 79.664 77.28 79.344C77.016 79.016 76.884 78.644 76.884 78.228ZM75.528 81.228H85.512V82.008H75.528V81.228ZM77.076 83.172H84.06V86.7H77.076V83.172ZM77.832 78.228C77.832 78.636 78.064 78.964 78.528 79.212C79 79.452 79.664 79.572 80.52 79.572C81.376 79.572 82.036 79.452 82.5 79.212C82.964 78.964 83.196 78.636 83.196 78.228C83.196 77.812 82.964 77.484 82.5 77.244C82.044 77.004 81.384 76.884 80.52 76.884C79.656 76.884 78.992 77.004 78.528 77.244C78.064 77.484 77.832 77.812 77.832 78.228ZM83.124 85.908V83.964H78.012V85.908H83.124ZM86.7471 79.08C86.7471 78.552 86.8711 78.092 87.1191 77.7C87.3671 77.308 87.7071 77.008 88.1391 76.8C88.5711 76.584 89.0591 76.476 89.6031 76.476C90.1471 76.476 90.6351 76.58 91.0671 76.788C91.4991 76.996 91.8391 77.3 92.0871 77.7C92.3351 78.092 92.4591 78.552 92.4591 79.08C92.4591 79.6 92.3351 80.056 92.0871 80.448C91.8391 80.84 91.4991 81.14 91.0671 81.348C90.6351 81.556 90.1471 81.66 89.6031 81.66C89.0591 81.66 88.5711 81.556 88.1391 81.348C87.7071 81.14 87.3671 80.84 87.1191 80.448C86.8711 80.056 86.7471 79.6 86.7471 79.08ZM87.7071 79.08C87.7071 79.6 87.8871 80.02 88.2471 80.34C88.6151 80.66 89.0671 80.82 89.6031 80.82C89.9471 80.82 90.2631 80.748 90.5511 80.604C90.8391 80.46 91.0671 80.256 91.2351 79.992C91.4111 79.728 91.4991 79.424 91.4991 79.08C91.4991 78.736 91.4111 78.432 91.2351 78.168C91.0671 77.896 90.8391 77.688 90.5511 77.544C90.2631 77.392 89.9471 77.316 89.6031 77.316C89.2591 77.316 88.9391 77.392 88.6431 77.544C88.3551 77.688 88.1271 77.896 87.9591 78.168C87.7911 78.432 87.7071 78.736 87.7071 79.08ZM88.3671 82.908H95.2551V86.7H94.3191V83.712H88.3671V82.908ZM94.3191 75.84H95.2551V78.492H96.7911V79.284H95.2551V81.924H94.3191V75.84ZM98.2061 79.164C98.2061 78.612 98.3421 78.148 98.6141 77.772C98.8941 77.388 99.2581 77.104 99.7061 76.92C100.154 76.728 100.638 76.632 101.158 76.632C101.662 76.632 102.134 76.728 102.574 76.92C103.022 77.104 103.382 77.388 103.654 77.772C103.934 78.148 104.074 78.612 104.074 79.164C104.074 79.716 103.934 80.184 103.654 80.568C103.382 80.944 103.022 81.228 102.574 81.42C102.134 81.604 101.662 81.696 101.158 81.696C100.638 81.696 100.154 81.604 99.7061 81.42C99.2581 81.228 98.8941 80.944 98.6141 80.568C98.3421 80.184 98.2061 79.716 98.2061 79.164ZM99.6461 83.424C102.086 83.416 104.13 83.208 105.778 82.8V75.84H106.714V86.58H105.778V83.484C105.01 83.724 104.114 83.908 103.09 84.036C102.066 84.156 100.99 84.22 99.8621 84.228L97.7981 84.24L97.7261 83.436L99.6461 83.424ZM99.1541 79.164C99.1541 79.524 99.2461 79.832 99.4301 80.088C99.6141 80.344 99.8581 80.54 100.162 80.676C100.474 80.812 100.806 80.88 101.158 80.88C101.502 80.88 101.822 80.812 102.118 80.676C102.422 80.54 102.666 80.344 102.85 80.088C103.034 79.832 103.126 79.524 103.126 79.164C103.126 78.62 102.934 78.2 102.55 77.904C102.166 77.6 101.702 77.448 101.158 77.448C100.606 77.448 100.134 77.6 99.7421 77.904C99.3501 78.2 99.1541 78.62 99.1541 79.164ZM112.851 76.356V77.724H116.055V76.356H116.991V80.976H111.915V76.356H112.851ZM116.055 80.184V78.516H112.851V80.184H116.055ZM113.295 83.94H119.175V82.836H113.319V82.044H120.111V84.696H114.231V85.92H118.011H120.459V86.712H117.939H113.295V83.94ZM119.163 75.84H120.099V78.228H121.635V79.02H120.099V81.324H119.163V75.84ZM128.09 76.656V77.496C128.09 78.224 127.89 78.924 127.49 79.596C127.09 80.268 126.522 80.864 125.786 81.384C125.058 81.896 124.206 82.292 123.23 82.572L122.87 81.792C123.838 81.544 124.642 81.184 125.282 80.712C125.93 80.24 126.402 79.732 126.698 79.188C127.002 78.644 127.154 78.124 127.154 77.628V77.448H123.29V76.656H128.09ZM124.898 83.388H125.834V85.908H131.93V86.7H124.898V83.388ZM128.618 77.928L130.622 77.94V75.84H131.558V83.712H130.622V81.408H128.666V80.628H130.622V78.72L128.618 78.708V77.928ZM139.465 76.896V77.76C139.465 78.296 139.393 78.992 139.249 79.848C139.105 80.696 138.945 81.36 138.769 81.84L137.989 81.684C138.133 81.164 138.257 80.528 138.361 79.776C138.473 79.024 138.529 78.42 138.529 77.964V77.7H134.101V76.896H139.465ZM135.265 83.34H135.361V80.304H136.273V81.228C136.273 81.948 136.237 82.648 136.165 83.328C138.197 83.296 139.901 83.104 141.277 82.752V75.84H142.213V79.944H143.881V80.76H142.213V86.568H141.277V83.448C140.557 83.672 139.693 83.844 138.685 83.964C137.685 84.084 136.617 84.144 135.481 84.144H133.453L133.417 83.34H135.265ZM152.85 76.416V77.208H148.782V78.648H152.718V79.416H148.782V80.868L149.43 80.88C151.006 80.88 152.298 80.764 153.306 80.532L153.45 81.24C152.33 81.568 150.75 81.732 148.71 81.732H147.846V76.416H152.85ZM149.118 82.704H155.886V86.7H149.118V82.704ZM154.95 85.92V83.484H150.03V85.92H154.95ZM154.926 75.84H155.862V78.612H157.518V79.404H155.862V81.96H154.926V75.84ZM158.225 81.36C158.953 80.888 159.509 80.356 159.893 79.764C160.285 79.172 160.481 78.468 160.481 77.652V76.476H161.417V77.724C161.417 78.188 161.497 78.612 161.657 78.996C161.825 79.38 162.049 79.72 162.329 80.016C162.657 80.368 163.053 80.652 163.517 80.868L163.085 81.624C162.501 81.336 162.037 80.992 161.693 80.592C161.373 80.224 161.133 79.8 160.973 79.32C160.789 79.936 160.525 80.44 160.181 80.832C159.837 81.224 159.357 81.64 158.741 82.08L158.225 81.36ZM160.673 82.872H167.777V86.7H166.841V83.664H160.673V82.872ZM164.273 76.008H165.209V78.54H166.829V75.84H167.765V81.924H166.829V79.32H165.209V81.924H164.273V76.008ZM170.776 77.916C170.776 77.332 171.084 76.864 171.7 76.512C172.324 76.152 173.228 75.972 174.412 75.972C175.596 75.972 176.496 76.152 177.112 76.512C177.728 76.864 178.036 77.332 178.036 77.916C178.036 78.508 177.728 78.984 177.112 79.344C176.496 79.696 175.596 79.872 174.412 79.872C173.228 79.872 172.324 79.696 171.7 79.344C171.084 78.984 170.776 78.508 170.776 77.916ZM169.372 80.604H179.356V81.372H169.372V80.604ZM170.848 84.084H176.872V83.148H170.872V82.368H177.808V84.804H171.784V85.908H175.384H178.06V86.7H175.348H170.848V84.084ZM171.724 77.916C171.724 78.276 171.952 78.564 172.408 78.78C172.864 78.988 173.532 79.092 174.412 79.092C175.292 79.092 175.956 78.988 176.404 78.78C176.86 78.564 177.088 78.276 177.088 77.916C177.088 77.564 176.86 77.284 176.404 77.076C175.956 76.86 175.292 76.752 174.412 76.752C173.532 76.752 172.864 76.86 172.408 77.076C171.952 77.284 171.724 77.564 171.724 77.916ZM183.836 78.708C183.836 78.252 183.956 77.848 184.196 77.496C184.444 77.144 184.784 76.872 185.216 76.68C185.648 76.48 186.132 76.38 186.668 76.38C187.196 76.38 187.672 76.48 188.096 76.68C188.52 76.872 188.852 77.144 189.092 77.496C189.34 77.848 189.464 78.252 189.464 78.708C189.464 79.164 189.34 79.568 189.092 79.92C188.852 80.272 188.52 80.548 188.096 80.748C187.672 80.94 187.196 81.036 186.668 81.036C186.132 81.036 185.648 80.94 185.216 80.748C184.784 80.548 184.444 80.272 184.196 79.92C183.956 79.568 183.836 79.164 183.836 78.708ZM185.024 82.08C186.288 82.08 187.488 82.04 188.624 81.96C189.76 81.872 190.668 81.728 191.348 81.528V75.84H192.284V86.58H191.348V82.272C190.348 82.544 188.948 82.732 187.148 82.836V86.472H186.236V82.884C186.036 82.892 185.744 82.896 185.36 82.896H183.188L183.116 82.08H185.024ZM184.76 78.708C184.76 79.148 184.932 79.52 185.276 79.824C185.62 80.12 186.084 80.268 186.668 80.268C187.244 80.268 187.7 80.12 188.036 79.824C188.372 79.52 188.54 79.148 188.54 78.708C188.54 78.26 188.372 77.888 188.036 77.592C187.7 77.296 187.244 77.148 186.668 77.148C186.076 77.148 185.608 77.296 185.264 77.592C184.928 77.88 184.76 78.252 184.76 78.708ZM197.132 77.136V75.852H198.068V77.136H200.504V77.928H194.408V77.136H197.132ZM195.032 80.748C195.032 80.348 195.136 79.988 195.344 79.668C195.56 79.348 195.86 79.1 196.244 78.924C196.636 78.74 197.092 78.648 197.612 78.648C198.124 78.648 198.572 78.74 198.956 78.924C199.348 79.1 199.648 79.348 199.855 79.668C200.072 79.98 200.18 80.34 200.18 80.748C200.18 81.148 200.072 81.508 199.855 81.828C199.648 82.14 199.348 82.388 198.956 82.572C198.572 82.748 198.124 82.836 197.612 82.836C197.092 82.836 196.636 82.748 196.244 82.572C195.86 82.388 195.56 82.14 195.344 81.828C195.136 81.508 195.032 81.148 195.032 80.748ZM195.98 80.748C195.98 81.116 196.124 81.428 196.412 81.684C196.7 81.94 197.1 82.068 197.612 82.068C198.116 82.068 198.512 81.94 198.8 81.684C199.088 81.42 199.232 81.108 199.232 80.748C199.232 80.356 199.088 80.036 198.8 79.788C198.512 79.54 198.116 79.416 197.612 79.416C197.092 79.416 196.688 79.54 196.4 79.788C196.12 80.036 195.98 80.356 195.98 80.748ZM196.22 83.844H197.156V85.884H203.264V86.7H196.22V83.844ZM201.968 75.828H202.904V79.656H204.44V80.448H202.904V83.964H201.968V75.828ZM216.744 76.116V76.896H209.316V76.116H216.744ZM208.02 80.664H218.004V81.432H208.02V80.664ZM209.316 79.032H210.924L210.744 78.084V77.292H211.752L211.824 79.032H212.748H214.248L214.32 77.292H215.328V78.084L215.148 79.032H216.756V79.812H212.748H209.316V79.032ZM209.616 84.084H215.52V83.148H209.64V82.368H216.456V84.804H210.552V85.908H214.032H216.708V86.7H213.996H209.616V84.084ZM223.163 76.872V80.568H220.199V83.1C221.535 83.1 222.767 83.008 223.895 82.824L224.027 83.532C223.515 83.652 222.947 83.744 222.323 83.808C221.707 83.872 220.975 83.924 220.127 83.964H219.263V79.836H222.227V77.664H219.347V76.872H223.163ZM223.607 79.812H225.023V76.008H225.935V86.268H225.023V80.58H223.607V79.812ZM227.555 75.84H228.491V86.568H227.555V75.84ZM230.614 80.304C230.614 79.52 230.746 78.856 231.01 78.312C231.274 77.768 231.622 77.364 232.054 77.1C232.486 76.836 232.954 76.704 233.458 76.704C233.954 76.704 234.414 76.836 234.838 77.1C235.27 77.364 235.614 77.768 235.87 78.312C236.134 78.856 236.266 79.52 236.266 80.304C236.266 81.088 236.134 81.752 235.87 82.296C235.614 82.84 235.27 83.244 234.838 83.508C234.414 83.772 233.954 83.904 233.458 83.904C232.954 83.904 232.486 83.772 232.054 83.508C231.622 83.244 231.274 82.84 231.01 82.296C230.746 81.752 230.614 81.088 230.614 80.304ZM231.526 80.304C231.526 80.896 231.614 81.404 231.79 81.828C231.974 82.244 232.214 82.56 232.51 82.776C232.806 82.984 233.122 83.088 233.458 83.088C233.794 83.088 234.106 82.984 234.394 82.776C234.682 82.56 234.914 82.244 235.09 81.828C235.266 81.404 235.354 80.896 235.354 80.304C235.354 79.704 235.266 79.196 235.09 78.78C234.914 78.356 234.682 78.04 234.394 77.832C234.106 77.624 233.794 77.52 233.458 77.52C233.114 77.52 232.794 77.628 232.498 77.844C232.21 78.052 231.974 78.364 231.79 78.78C231.614 79.196 231.526 79.704 231.526 80.304ZM238.27 75.84H239.206V86.568H238.27V75.84ZM246.765 76.824V80.544H242.685V83.064L243.417 83.076C245.161 83.076 246.629 82.964 247.821 82.74L247.941 83.484C246.589 83.78 244.813 83.928 242.613 83.928H241.749V79.812H245.829V77.616H241.833V76.824H246.765ZM249.309 75.84H250.245V86.58H249.309V75.84ZM252.644 81.228C253.404 81.036 254.092 80.744 254.708 80.352C255.324 79.96 255.808 79.512 256.16 79.008C256.512 78.496 256.688 77.988 256.688 77.484V76.476H257.648V77.484C257.648 77.996 257.796 78.472 258.092 78.912C258.388 79.344 258.796 79.728 259.316 80.064C259.972 80.488 260.804 80.828 261.812 81.084L261.536 81.912C260.392 81.584 259.496 81.208 258.848 80.784C258.024 80.248 257.464 79.616 257.168 78.888C256.872 79.64 256.332 80.288 255.548 80.832C254.764 81.376 253.912 81.78 252.992 82.044L252.644 81.228ZM252.176 84.576H262.16V85.392H252.176V84.576ZM271.88 76.656V77.472H265.556V79.2H271.76V80.016H265.556V81.792H268.736H271.988V82.608H268.772H264.62V76.656H271.88ZM263.216 84.576H273.2V85.392H263.216V84.576ZM285.42 76.308V77.172C285.42 77.676 285.364 78.356 285.252 79.212C285.148 80.06 285.024 80.76 284.88 81.312H287.004V82.104H284.496V86.64H283.56V82.104H280.5V86.64H279.564V82.104H277.02V81.312H284.052C284.148 80.872 284.24 80.2 284.328 79.296C283.448 79.432 282.58 79.528 281.724 79.584C280.868 79.632 279.8 79.672 278.52 79.704L278.388 78.912L279.336 78.888C280.432 78.872 281.356 78.844 282.108 78.804C282.868 78.764 283.628 78.688 284.388 78.576C284.428 78.032 284.448 77.624 284.448 77.352V77.1H278.568V76.308H285.42ZM292.163 76.872V80.568H289.199V83.1C290.535 83.1 291.767 83.008 292.895 82.824L293.027 83.532C292.515 83.652 291.947 83.744 291.323 83.808C290.707 83.872 289.975 83.924 289.127 83.964H288.263V79.836H291.227V77.664H288.347V76.872H292.163ZM292.607 79.812H294.023V76.008H294.935V86.268H294.023V80.58H292.607V79.812ZM296.555 75.84H297.491V86.568H296.555V75.84ZM299.614 80.304C299.614 79.52 299.746 78.856 300.01 78.312C300.274 77.768 300.622 77.364 301.054 77.1C301.486 76.836 301.954 76.704 302.458 76.704C302.954 76.704 303.414 76.836 303.838 77.1C304.27 77.364 304.614 77.768 304.87 78.312C305.134 78.856 305.266 79.52 305.266 80.304C305.266 81.088 305.134 81.752 304.87 82.296C304.614 82.84 304.27 83.244 303.838 83.508C303.414 83.772 302.954 83.904 302.458 83.904C301.954 83.904 301.486 83.772 301.054 83.508C300.622 83.244 300.274 82.84 300.01 82.296C299.746 81.752 299.614 81.088 299.614 80.304ZM300.526 80.304C300.526 80.896 300.614 81.404 300.79 81.828C300.974 82.244 301.214 82.56 301.51 82.776C301.806 82.984 302.122 83.088 302.458 83.088C302.794 83.088 303.106 82.984 303.394 82.776C303.682 82.56 303.914 82.244 304.09 81.828C304.266 81.404 304.354 80.896 304.354 80.304C304.354 79.704 304.266 79.196 304.09 78.78C303.914 78.356 303.682 78.04 303.394 77.832C303.106 77.624 302.794 77.52 302.458 77.52C302.114 77.52 301.794 77.628 301.498 77.844C301.21 78.052 300.974 78.364 300.79 78.78C300.614 79.196 300.526 79.704 300.526 80.304ZM307.27 75.84H308.206V86.568H307.27V75.84ZM310.113 81.792C310.633 81.568 311.101 81.26 311.517 80.868C311.933 80.468 312.261 80.012 312.501 79.5C312.741 78.98 312.861 78.44 312.861 77.88V76.536H313.797V77.916C313.797 78.316 313.913 78.748 314.145 79.212C314.385 79.676 314.669 80.064 314.997 80.376C315.229 80.6 315.485 80.8 315.765 80.976C316.045 81.144 316.317 81.28 316.581 81.384L316.209 82.176C315.513 81.904 314.921 81.524 314.433 81.036C313.961 80.548 313.617 80.024 313.401 79.464C313.161 80.184 312.801 80.792 312.321 81.288C311.849 81.784 311.273 82.2 310.593 82.536L310.113 81.792ZM312.489 83.292H313.425V85.896H319.485V86.7H312.489V83.292ZM316.245 79.716H318.309V78.18H316.245V77.412H318.309V75.84H319.245V83.508H318.309V80.484H316.245V79.716ZM332.666 76.116V76.896H325.238V76.116H332.666ZM323.942 80.664H333.926V81.432H323.942V80.664ZM325.238 79.032H326.846L326.666 78.084V77.292H327.674L327.746 79.032H328.67H330.17L330.242 77.292H331.25V78.084L331.07 79.032H332.678V79.812H328.67H325.238V79.032ZM325.538 84.084H331.442V83.148H325.562V82.368H332.378V84.804H326.474V85.908H329.954H332.63V86.7H329.918H325.538V84.084ZM339.313 76.548V79.572H336.373V81.084L336.985 81.096C338.489 81.096 339.809 80.928 340.945 80.592V76.008H341.881V78.804H343.477V75.84H344.413V82.824H343.477V79.596H341.881V82.02H340.945V81.336C340.217 81.56 339.485 81.716 338.749 81.804C338.021 81.884 337.205 81.924 336.301 81.924H335.437V78.804H338.377V77.328H335.521V76.548H339.313ZM336.289 85.872C336.761 85.856 337.301 85.736 337.909 85.512C338.517 85.288 339.033 84.996 339.457 84.636C339.889 84.276 340.105 83.896 340.105 83.496V82.548H341.041V83.496C341.041 83.816 341.169 84.124 341.425 84.42C341.689 84.708 342.029 84.964 342.445 85.188C342.797 85.38 343.177 85.536 343.585 85.656C344.001 85.776 344.377 85.848 344.713 85.872L344.389 86.7C343.981 86.652 343.569 86.564 343.153 86.436C342.737 86.316 342.361 86.16 342.025 85.968C341.377 85.608 340.893 85.164 340.573 84.636C340.253 85.172 339.733 85.62 339.013 85.98C338.293 86.348 337.497 86.588 336.625 86.7L336.289 85.872ZM354.828 75.996V76.776H347.196V75.996H354.828ZM346.02 81.336H350.604V80.172H347.196V79.392H348.912L348.744 78.084V77.292H349.752L349.812 79.392H350.748H352.26L352.32 77.292H353.328V78.084L353.16 79.392H354.84V80.172H351.54V81.336H356.004V82.14H346.02V81.336ZM347.508 83.244H354.552V86.7H347.508V83.244ZM353.616 85.908V84.036H348.444V85.908H353.616Z" fill="#F5F5F5"/>
<path d="M32.612 107.54C33.14 107.3 33.628 106.952 34.076 106.496C34.524 106.032 34.876 105.52 35.132 104.96C35.396 104.392 35.528 103.844 35.528 103.316V101.144H36.464V103.28C36.464 104.312 36.96 105.312 37.952 106.28C38.368 106.68 38.824 107.008 39.32 107.264L38.864 107.996C38.24 107.628 37.712 107.216 37.28 106.76C36.68 106.128 36.26 105.48 36.02 104.816C35.78 105.608 35.4 106.292 34.88 106.868C34.368 107.444 33.776 107.92 33.104 108.296L32.612 107.54ZM38.36 103.964H40.7V100.34H41.636V111.068H40.7V104.78H38.36V103.964ZM44.9711 102.392C44.9711 101.8 45.2791 101.324 45.8951 100.964C46.5191 100.596 47.4231 100.412 48.6071 100.412C49.7911 100.412 50.6911 100.596 51.3071 100.964C51.9231 101.324 52.2311 101.8 52.2311 102.392C52.2311 102.984 51.9231 103.464 51.3071 103.832C50.6911 104.192 49.7911 104.372 48.6071 104.372C47.4231 104.372 46.5191 104.192 45.8951 103.832C45.2791 103.464 44.9711 102.984 44.9711 102.392ZM43.5671 105.068H53.5511V105.836H49.0631V106.868H52.0031V109.304H46.0151V110.408H49.5791H52.2551V111.2H49.5431H45.0791V108.584H51.0671V107.648H45.1031V106.868H48.1511V105.836H43.5671V105.068ZM45.9191 102.392C45.9191 102.752 46.1471 103.04 46.6031 103.256C47.0591 103.472 47.7271 103.58 48.6071 103.58C49.4871 103.58 50.1511 103.472 50.5991 103.256C51.0551 103.04 51.2831 102.752 51.2831 102.392C51.2831 102.032 51.0551 101.744 50.5991 101.528C50.1511 101.312 49.4871 101.204 48.6071 101.204C47.7271 101.204 47.0591 101.312 46.6031 101.528C46.1471 101.744 45.9191 102.032 45.9191 102.392ZM54.7141 107.444C55.2421 107.204 55.7301 106.856 56.1781 106.4C56.6261 105.936 56.9781 105.424 57.2341 104.864C57.4981 104.296 57.6301 103.748 57.6301 103.22V101.096H58.5661V103.184C58.5661 104.216 59.0621 105.216 60.0541 106.184C60.4701 106.584 60.9261 106.912 61.4221 107.168L60.9661 107.9C60.3421 107.532 59.8141 107.12 59.3821 106.664C58.7821 106.032 58.3621 105.384 58.1221 104.72C57.8821 105.512 57.5021 106.196 56.9821 106.772C56.4701 107.348 55.8781 107.824 55.2061 108.2L54.7141 107.444ZM62.7781 100.34H63.7141V111.068H62.7781V100.34ZM71.4588 110.12C70.8828 110.12 70.3708 109.936 69.9228 109.568C69.4828 109.192 69.1348 108.66 68.8788 107.972C68.6308 107.276 68.5068 106.468 68.5068 105.548C68.5068 104.676 68.6308 103.908 68.8788 103.244C69.1348 102.58 69.4828 102.068 69.9228 101.708C70.3708 101.34 70.8828 101.156 71.4588 101.156C72.0348 101.156 72.5468 101.34 72.9948 101.708C73.4428 102.068 73.7908 102.58 74.0388 103.244C74.2868 103.908 74.4108 104.676 74.4108 105.548C74.4108 106.468 74.2868 107.276 74.0388 107.972C73.7908 108.66 73.4428 109.192 72.9948 109.568C72.5468 109.936 72.0348 110.12 71.4588 110.12ZM69.4908 105.524C69.4908 106.716 69.6588 107.64 69.9948 108.296C70.3308 108.944 70.8188 109.268 71.4588 109.268C72.1068 109.268 72.5948 108.944 72.9228 108.296C73.2588 107.648 73.4268 106.724 73.4268 105.524C73.4268 104.388 73.2628 103.52 72.9348 102.92C72.6068 102.312 72.1148 102.008 71.4588 102.008C70.8028 102.008 70.3108 102.312 69.9828 102.92C69.6548 103.52 69.4908 104.388 69.4908 105.524ZM78.6073 110.12C78.0313 110.12 77.5193 109.936 77.0713 109.568C76.6313 109.192 76.2833 108.66 76.0273 107.972C75.7793 107.276 75.6553 106.468 75.6553 105.548C75.6553 104.676 75.7793 103.908 76.0273 103.244C76.2833 102.58 76.6313 102.068 77.0713 101.708C77.5193 101.34 78.0313 101.156 78.6073 101.156C79.1833 101.156 79.6953 101.34 80.1433 101.708C80.5913 102.068 80.9393 102.58 81.1873 103.244C81.4353 103.908 81.5593 104.676 81.5593 105.548C81.5593 106.468 81.4353 107.276 81.1873 107.972C80.9393 108.66 80.5913 109.192 80.1433 109.568C79.6953 109.936 79.1833 110.12 78.6073 110.12ZM76.6393 105.524C76.6393 106.716 76.8073 107.64 77.1433 108.296C77.4793 108.944 77.9673 109.268 78.6073 109.268C79.2553 109.268 79.7433 108.944 80.0713 108.296C80.4073 107.648 80.5753 106.724 80.5753 105.524C80.5753 104.388 80.4113 103.52 80.0833 102.92C79.7553 102.312 79.2633 102.008 78.6073 102.008C77.9513 102.008 77.4593 102.312 77.1313 102.92C76.8033 103.52 76.6393 104.388 76.6393 105.524ZM91.1797 101V101.864C91.1797 102.392 91.1317 103.016 91.0357 103.736C90.9477 104.456 90.8317 105.132 90.6877 105.764H92.6917V106.592H88.1797V111.14H87.2437V106.592H82.7077V105.764H89.8237C89.9357 105.116 90.0277 104.456 90.0997 103.784C90.1717 103.104 90.2077 102.524 90.2077 102.044V101.792H84.0757V101H91.1797ZM99.5604 110.12C98.9844 110.12 98.4724 109.936 98.0244 109.568C97.5844 109.192 97.2364 108.66 96.9804 107.972C96.7324 107.276 96.6084 106.468 96.6084 105.548C96.6084 104.676 96.7324 103.908 96.9804 103.244C97.2364 102.58 97.5844 102.068 98.0244 101.708C98.4724 101.34 98.9844 101.156 99.5604 101.156C100.136 101.156 100.648 101.34 101.096 101.708C101.544 102.068 101.892 102.58 102.14 103.244C102.388 103.908 102.512 104.676 102.512 105.548C102.512 106.468 102.388 107.276 102.14 107.972C101.892 108.66 101.544 109.192 101.096 109.568C100.648 109.936 100.136 110.12 99.5604 110.12ZM97.5924 105.524C97.5924 106.716 97.7604 107.64 98.0964 108.296C98.4324 108.944 98.9204 109.268 99.5604 109.268C100.208 109.268 100.696 108.944 101.024 108.296C101.36 107.648 101.528 106.724 101.528 105.524C101.528 104.388 101.364 103.52 101.036 102.92C100.708 102.312 100.216 102.008 99.5604 102.008C98.9044 102.008 98.4124 102.312 98.0844 102.92C97.7564 103.52 97.5924 104.388 97.5924 105.524ZM106.709 110.12C106.133 110.12 105.621 109.936 105.173 109.568C104.733 109.192 104.385 108.66 104.129 107.972C103.881 107.276 103.757 106.468 103.757 105.548C103.757 104.676 103.881 103.908 104.129 103.244C104.385 102.58 104.733 102.068 105.173 101.708C105.621 101.34 106.133 101.156 106.709 101.156C107.285 101.156 107.797 101.34 108.245 101.708C108.693 102.068 109.041 102.58 109.289 103.244C109.537 103.908 109.661 104.676 109.661 105.548C109.661 106.468 109.537 107.276 109.289 107.972C109.041 108.66 108.693 109.192 108.245 109.568C107.797 109.936 107.285 110.12 106.709 110.12ZM104.741 105.524C104.741 106.716 104.909 107.64 105.245 108.296C105.581 108.944 106.069 109.268 106.709 109.268C107.357 109.268 107.845 108.944 108.173 108.296C108.509 107.648 108.677 106.724 108.677 105.524C108.677 104.388 108.513 103.52 108.185 102.92C107.857 102.312 107.365 102.008 106.709 102.008C106.053 102.008 105.561 102.312 105.233 102.92C104.905 103.52 104.741 104.388 104.741 105.524ZM119.269 100.772V101.564H113.401V103.7H116.953H119.377V104.492H116.953H116.413V105.776H120.793V106.58H110.809V105.776H115.477V104.492H112.465V100.772H119.269ZM112.237 109.328C112.237 108.96 112.369 108.632 112.633 108.344C112.897 108.048 113.301 107.816 113.845 107.648C114.389 107.48 115.065 107.396 115.873 107.396C117.065 107.396 117.965 107.576 118.573 107.936C119.189 108.296 119.497 108.76 119.497 109.328C119.497 109.92 119.193 110.392 118.585 110.744C117.977 111.096 117.073 111.272 115.873 111.272C114.673 111.272 113.765 111.096 113.149 110.744C112.541 110.392 112.237 109.92 112.237 109.328ZM113.161 109.328C113.161 109.664 113.385 109.948 113.833 110.18C114.281 110.412 114.961 110.528 115.873 110.528C116.785 110.528 117.461 110.412 117.901 110.18C118.349 109.948 118.573 109.664 118.573 109.328C118.573 108.984 118.353 108.7 117.913 108.476C117.473 108.252 116.793 108.14 115.873 108.14C114.953 108.14 114.269 108.252 113.821 108.476C113.381 108.7 113.161 108.984 113.161 109.328ZM127.662 110.12C127.086 110.12 126.574 109.936 126.126 109.568C125.686 109.192 125.338 108.66 125.082 107.972C124.834 107.276 124.71 106.468 124.71 105.548C124.71 104.676 124.834 103.908 125.082 103.244C125.338 102.58 125.686 102.068 126.126 101.708C126.574 101.34 127.086 101.156 127.662 101.156C128.238 101.156 128.75 101.34 129.198 101.708C129.646 102.068 129.994 102.58 130.242 103.244C130.49 103.908 130.614 104.676 130.614 105.548C130.614 106.468 130.49 107.276 130.242 107.972C129.994 108.66 129.646 109.192 129.198 109.568C128.75 109.936 128.238 110.12 127.662 110.12ZM125.694 105.524C125.694 106.716 125.862 107.64 126.198 108.296C126.534 108.944 127.022 109.268 127.662 109.268C128.31 109.268 128.798 108.944 129.126 108.296C129.462 107.648 129.63 106.724 129.63 105.524C129.63 104.388 129.466 103.52 129.138 102.92C128.81 102.312 128.318 102.008 127.662 102.008C127.006 102.008 126.514 102.312 126.186 102.92C125.858 103.52 125.694 104.388 125.694 105.524ZM134.81 110.12C134.234 110.12 133.722 109.936 133.274 109.568C132.834 109.192 132.486 108.66 132.23 107.972C131.982 107.276 131.858 106.468 131.858 105.548C131.858 104.676 131.982 103.908 132.23 103.244C132.486 102.58 132.834 102.068 133.274 101.708C133.722 101.34 134.234 101.156 134.81 101.156C135.386 101.156 135.898 101.34 136.346 101.708C136.794 102.068 137.142 102.58 137.39 103.244C137.638 103.908 137.762 104.676 137.762 105.548C137.762 106.468 137.638 107.276 137.39 107.972C137.142 108.66 136.794 109.192 136.346 109.568C135.898 109.936 135.386 110.12 134.81 110.12ZM132.842 105.524C132.842 106.716 133.01 107.64 133.346 108.296C133.682 108.944 134.17 109.268 134.81 109.268C135.458 109.268 135.946 108.944 136.274 108.296C136.61 107.648 136.778 106.724 136.778 105.524C136.778 104.388 136.614 103.52 136.286 102.92C135.958 102.312 135.466 102.008 134.81 102.008C134.154 102.008 133.662 102.312 133.334 102.92C133.006 103.52 132.842 104.388 132.842 105.524ZM141.959 110.12C141.383 110.12 140.871 109.936 140.423 109.568C139.983 109.192 139.635 108.66 139.379 107.972C139.131 107.276 139.007 106.468 139.007 105.548C139.007 104.676 139.131 103.908 139.379 103.244C139.635 102.58 139.983 102.068 140.423 101.708C140.871 101.34 141.383 101.156 141.959 101.156C142.535 101.156 143.047 101.34 143.495 101.708C143.943 102.068 144.291 102.58 144.539 103.244C144.787 103.908 144.911 104.676 144.911 105.548C144.911 106.468 144.787 107.276 144.539 107.972C144.291 108.66 143.943 109.192 143.495 109.568C143.047 109.936 142.535 110.12 141.959 110.12ZM139.991 105.524C139.991 106.716 140.159 107.64 140.495 108.296C140.831 108.944 141.319 109.268 141.959 109.268C142.607 109.268 143.095 108.944 143.423 108.296C143.759 107.648 143.927 106.724 143.927 105.524C143.927 104.388 143.763 103.52 143.435 102.92C143.107 102.312 142.615 102.008 141.959 102.008C141.303 102.008 140.811 102.312 140.483 102.92C140.155 103.52 139.991 104.388 139.991 105.524ZM149.107 110.12C148.531 110.12 148.019 109.936 147.571 109.568C147.131 109.192 146.783 108.66 146.527 107.972C146.279 107.276 146.155 106.468 146.155 105.548C146.155 104.676 146.279 103.908 146.527 103.244C146.783 102.58 147.131 102.068 147.571 101.708C148.019 101.34 148.531 101.156 149.107 101.156C149.683 101.156 150.195 101.34 150.643 101.708C151.091 102.068 151.439 102.58 151.687 103.244C151.935 103.908 152.059 104.676 152.059 105.548C152.059 106.468 151.935 107.276 151.687 107.972C151.439 108.66 151.091 109.192 150.643 109.568C150.195 109.936 149.683 110.12 149.107 110.12ZM147.139 105.524C147.139 106.716 147.307 107.64 147.643 108.296C147.979 108.944 148.467 109.268 149.107 109.268C149.755 109.268 150.243 108.944 150.571 108.296C150.907 107.648 151.075 106.724 151.075 105.524C151.075 104.388 150.911 103.52 150.583 102.92C150.255 102.312 149.763 102.008 149.107 102.008C148.451 102.008 147.959 102.312 147.631 102.92C147.303 103.52 147.139 104.388 147.139 105.524Z" fill="#F5F5F5"/>
<path d="M164.576 110.12C164 110.12 163.488 109.936 163.04 109.568C162.6 109.192 162.252 108.66 161.996 107.972C161.748 107.276 161.624 106.468 161.624 105.548C161.624 104.676 161.748 103.908 161.996 103.244C162.252 102.58 162.6 102.068 163.04 101.708C163.488 101.34 164 101.156 164.576 101.156C165.152 101.156 165.664 101.34 166.112 101.708C166.56 102.068 166.908 102.58 167.156 103.244C167.404 103.908 167.528 104.676 167.528 105.548C167.528 106.468 167.404 107.276 167.156 107.972C166.908 108.66 166.56 109.192 166.112 109.568C165.664 109.936 165.152 110.12 164.576 110.12ZM162.608 105.524C162.608 106.716 162.776 107.64 163.112 108.296C163.448 108.944 163.936 109.268 164.576 109.268C165.224 109.268 165.712 108.944 166.04 108.296C166.376 107.648 166.544 106.724 166.544 105.524C166.544 104.388 166.38 103.52 166.052 102.92C165.724 102.312 165.232 102.008 164.576 102.008C163.92 102.008 163.428 102.312 163.1 102.92C162.772 103.52 162.608 104.388 162.608 105.524ZM168.736 109.16C169.848 108.144 171 107.068 172.192 105.932C172.68 105.468 173.028 105.06 173.236 104.708C173.452 104.348 173.56 103.948 173.56 103.508C173.56 102.996 173.404 102.612 173.092 102.356C172.788 102.1 172.352 101.972 171.784 101.972C171.152 101.972 170.688 102.124 170.392 102.428C170.096 102.724 169.948 103.096 169.948 103.544C169.948 103.648 169.952 103.724 169.96 103.772L168.916 103.916C168.908 103.86 168.904 103.776 168.904 103.664C168.904 103.232 169.012 102.828 169.228 102.452C169.452 102.068 169.784 101.756 170.224 101.516C170.664 101.276 171.204 101.156 171.844 101.156C172.7 101.156 173.364 101.368 173.836 101.792C174.308 102.216 174.544 102.788 174.544 103.508C174.544 104.052 174.416 104.548 174.16 104.996C173.912 105.436 173.516 105.908 172.972 106.412L172.12 107.204C171.504 107.788 170.796 108.44 169.996 109.16H174.64V110H168.736V109.16ZM180.421 106.388H176.257V105.548H180.421V106.388ZM184.955 110.12C184.379 110.12 183.867 109.936 183.419 109.568C182.979 109.192 182.631 108.66 182.375 107.972C182.127 107.276 182.003 106.468 182.003 105.548C182.003 104.676 182.127 103.908 182.375 103.244C182.631 102.58 182.979 102.068 183.419 101.708C183.867 101.34 184.379 101.156 184.955 101.156C185.531 101.156 186.043 101.34 186.491 101.708C186.939 102.068 187.287 102.58 187.535 103.244C187.783 103.908 187.907 104.676 187.907 105.548C187.907 106.468 187.783 107.276 187.535 107.972C187.287 108.66 186.939 109.192 186.491 109.568C186.043 109.936 185.531 110.12 184.955 110.12ZM182.987 105.524C182.987 106.716 183.155 107.64 183.491 108.296C183.827 108.944 184.315 109.268 184.955 109.268C185.603 109.268 186.091 108.944 186.419 108.296C186.755 107.648 186.923 106.724 186.923 105.524C186.923 104.388 186.759 103.52 186.431 102.92C186.103 102.312 185.611 102.008 184.955 102.008C184.299 102.008 183.807 102.312 183.479 102.92C183.151 103.52 182.987 104.388 182.987 105.524ZM192.103 110.12C191.527 110.12 191.015 109.936 190.567 109.568C190.127 109.192 189.779 108.66 189.523 107.972C189.275 107.276 189.151 106.468 189.151 105.548C189.151 104.676 189.275 103.908 189.523 103.244C189.779 102.58 190.127 102.068 190.567 101.708C191.015 101.34 191.527 101.156 192.103 101.156C192.679 101.156 193.191 101.34 193.639 101.708C194.087 102.068 194.435 102.58 194.683 103.244C194.931 103.908 195.055 104.676 195.055 105.548C195.055 106.468 194.931 107.276 194.683 107.972C194.435 108.66 194.087 109.192 193.639 109.568C193.191 109.936 192.679 110.12 192.103 110.12ZM190.135 105.524C190.135 106.716 190.303 107.64 190.639 108.296C190.975 108.944 191.463 109.268 192.103 109.268C192.751 109.268 193.239 108.944 193.567 108.296C193.903 107.648 194.071 106.724 194.071 105.524C194.071 104.388 193.907 103.52 193.579 102.92C193.251 102.312 192.759 102.008 192.103 102.008C191.447 102.008 190.955 102.312 190.627 102.92C190.299 103.52 190.135 104.388 190.135 105.524ZM199.252 110.12C198.676 110.12 198.164 109.936 197.716 109.568C197.276 109.192 196.928 108.66 196.672 107.972C196.424 107.276 196.3 106.468 196.3 105.548C196.3 104.676 196.424 103.908 196.672 103.244C196.928 102.58 197.276 102.068 197.716 101.708C198.164 101.34 198.676 101.156 199.252 101.156C199.828 101.156 200.34 101.34 200.788 101.708C201.236 102.068 201.584 102.58 201.832 103.244C202.08 103.908 202.204 104.676 202.204 105.548C202.204 106.468 202.08 107.276 201.832 107.972C201.584 108.66 201.236 109.192 200.788 109.568C200.34 109.936 199.828 110.12 199.252 110.12ZM197.284 105.524C197.284 106.716 197.452 107.64 197.788 108.296C198.124 108.944 198.612 109.268 199.252 109.268C199.9 109.268 200.388 108.944 200.716 108.296C201.052 107.648 201.22 106.724 201.22 105.524C201.22 104.388 201.056 103.52 200.728 102.92C200.4 102.312 199.908 102.008 199.252 102.008C198.596 102.008 198.104 102.312 197.776 102.92C197.448 103.52 197.284 104.388 197.284 105.524ZM207.948 106.388H203.784V105.548H207.948V106.388ZM212.482 110.12C211.906 110.12 211.394 109.936 210.946 109.568C210.506 109.192 210.158 108.66 209.902 107.972C209.654 107.276 209.53 106.468 209.53 105.548C209.53 104.676 209.654 103.908 209.902 103.244C210.158 102.58 210.506 102.068 210.946 101.708C211.394 101.34 211.906 101.156 212.482 101.156C213.058 101.156 213.57 101.34 214.018 101.708C214.466 102.068 214.814 102.58 215.062 103.244C215.31 103.908 215.434 104.676 215.434 105.548C215.434 106.468 215.31 107.276 215.062 107.972C214.814 108.66 214.466 109.192 214.018 109.568C213.57 109.936 213.058 110.12 212.482 110.12ZM210.514 105.524C210.514 106.716 210.682 107.64 211.018 108.296C211.354 108.944 211.842 109.268 212.482 109.268C213.13 109.268 213.618 108.944 213.946 108.296C214.282 107.648 214.45 106.724 214.45 105.524C214.45 104.388 214.286 103.52 213.958 102.92C213.63 102.312 213.138 102.008 212.482 102.008C211.826 102.008 211.334 102.312 211.006 102.92C210.678 103.52 210.514 104.388 210.514 105.524ZM219.631 110.12C219.055 110.12 218.543 109.936 218.095 109.568C217.655 109.192 217.307 108.66 217.051 107.972C216.803 107.276 216.679 106.468 216.679 105.548C216.679 104.676 216.803 103.908 217.051 103.244C217.307 102.58 217.655 102.068 218.095 101.708C218.543 101.34 219.055 101.156 219.631 101.156C220.207 101.156 220.719 101.34 221.167 101.708C221.615 102.068 221.963 102.58 222.211 103.244C222.459 103.908 222.583 104.676 222.583 105.548C222.583 106.468 222.459 107.276 222.211 107.972C221.963 108.66 221.615 109.192 221.167 109.568C220.719 109.936 220.207 110.12 219.631 110.12ZM217.663 105.524C217.663 106.716 217.831 107.64 218.167 108.296C218.503 108.944 218.991 109.268 219.631 109.268C220.279 109.268 220.767 108.944 221.095 108.296C221.431 107.648 221.599 106.724 221.599 105.524C221.599 104.388 221.435 103.52 221.107 102.92C220.779 102.312 220.287 102.008 219.631 102.008C218.975 102.008 218.483 102.312 218.155 102.92C217.827 103.52 217.663 104.388 217.663 105.524ZM226.779 110.12C226.203 110.12 225.691 109.936 225.243 109.568C224.803 109.192 224.455 108.66 224.199 107.972C223.951 107.276 223.827 106.468 223.827 105.548C223.827 104.676 223.951 103.908 224.199 103.244C224.455 102.58 224.803 102.068 225.243 101.708C225.691 101.34 226.203 101.156 226.779 101.156C227.355 101.156 227.867 101.34 228.315 101.708C228.763 102.068 229.111 102.58 229.359 103.244C229.607 103.908 229.731 104.676 229.731 105.548C229.731 106.468 229.607 107.276 229.359 107.972C229.111 108.66 228.763 109.192 228.315 109.568C227.867 109.936 227.355 110.12 226.779 110.12ZM224.811 105.524C224.811 106.716 224.979 107.64 225.315 108.296C225.651 108.944 226.139 109.268 226.779 109.268C227.427 109.268 227.915 108.944 228.243 108.296C228.579 107.648 228.747 106.724 228.747 105.524C228.747 104.388 228.583 103.52 228.255 102.92C227.927 102.312 227.435 102.008 226.779 102.008C226.123 102.008 225.631 102.312 225.303 102.92C224.975 103.52 224.811 104.388 224.811 105.524ZM233.928 110.12C233.352 110.12 232.84 109.936 232.392 109.568C231.952 109.192 231.604 108.66 231.348 107.972C231.1 107.276 230.976 106.468 230.976 105.548C230.976 104.676 231.1 103.908 231.348 103.244C231.604 102.58 231.952 102.068 232.392 101.708C232.84 101.34 233.352 101.156 233.928 101.156C234.504 101.156 235.016 101.34 235.464 101.708C235.912 102.068 236.26 102.58 236.508 103.244C236.756 103.908 236.88 104.676 236.88 105.548C236.88 106.468 236.756 107.276 236.508 107.972C236.26 108.66 235.912 109.192 235.464 109.568C235.016 109.936 234.504 110.12 233.928 110.12ZM231.96 105.524C231.96 106.716 232.128 107.64 232.464 108.296C232.8 108.944 233.288 109.268 233.928 109.268C234.576 109.268 235.064 108.944 235.392 108.296C235.728 107.648 235.896 106.724 235.896 105.524C235.896 104.388 235.732 103.52 235.404 102.92C235.076 102.312 234.584 102.008 233.928 102.008C233.272 102.008 232.78 102.312 232.452 102.92C232.124 103.52 231.96 104.388 231.96 105.524Z" fill="#F5F5F5"/>
<path d="M246.984 103.844H247.836L247.884 104.636C248.348 104.028 248.992 103.724 249.816 103.724C250.544 103.724 251.12 103.988 251.544 104.516C251.976 105.044 252.192 105.78 252.192 106.724C252.192 107.436 252.068 108.048 251.82 108.56C251.572 109.072 251.24 109.46 250.824 109.724C250.416 109.988 249.964 110.12 249.468 110.12C248.836 110.12 248.32 109.928 247.92 109.544V112.16H246.984V103.844ZM247.92 108.596C248.08 108.812 248.304 108.988 248.592 109.124C248.88 109.26 249.18 109.328 249.492 109.328C250.012 109.328 250.432 109.108 250.752 108.668C251.072 108.228 251.232 107.608 251.232 106.808C251.232 106.056 251.092 105.488 250.812 105.104C250.54 104.72 250.136 104.528 249.6 104.528C248.888 104.528 248.328 104.868 247.92 105.548V108.596ZM253.922 101.156H254.858V110H253.922V101.156ZM256.72 110.648C256.736 110.776 256.764 110.888 256.804 110.984C256.852 111.104 256.916 111.2 256.996 111.272C257.084 111.344 257.224 111.38 257.416 111.38C257.616 111.38 257.76 111.328 257.848 111.224C257.944 111.128 258.032 110.992 258.112 110.816C258.224 110.56 258.296 110.316 258.328 110.084L256.012 103.844H257.08L258.508 108.128L258.808 109.1L259.12 108.128L260.524 103.844H261.544L258.952 110.924C258.808 111.3 258.612 111.6 258.364 111.824C258.124 112.048 257.78 112.16 257.332 112.16C256.972 112.16 256.684 112.092 256.468 111.956C256.252 111.82 256.1 111.656 256.012 111.464C255.908 111.232 255.856 111.024 255.856 110.84L256.72 110.648ZM262.673 110.648C262.689 110.776 262.717 110.888 262.757 110.984C262.805 111.104 262.869 111.2 262.949 111.272C263.037 111.344 263.177 111.38 263.369 111.38C263.569 111.38 263.713 111.328 263.801 111.224C263.897 111.128 263.985 110.992 264.065 110.816C264.177 110.56 264.249 110.316 264.281 110.084L261.965 103.844H263.033L264.461 108.128L264.761 109.1L265.073 108.128L266.477 103.844H267.497L264.905 110.924C264.761 111.3 264.565 111.6 264.317 111.824C264.077 112.048 263.733 112.16 263.285 112.16C262.925 112.16 262.637 112.092 262.421 111.956C262.205 111.82 262.053 111.656 261.965 111.464C261.861 111.232 261.809 111.024 261.809 110.84L262.673 110.648ZM273.282 111.944H268.71V111.224H273.282V111.944ZM279.498 105.992C279.45 105.504 279.282 105.136 278.994 104.888C278.706 104.64 278.314 104.516 277.818 104.516C277.202 104.516 276.734 104.728 276.414 105.152C276.102 105.568 275.946 106.16 275.946 106.928C275.946 107.696 276.106 108.288 276.426 108.704C276.754 109.112 277.254 109.316 277.926 109.316C278.43 109.316 278.818 109.212 279.09 109.004C279.37 108.796 279.518 108.504 279.534 108.128L280.482 108.14C280.394 108.772 280.122 109.26 279.666 109.604C279.218 109.948 278.618 110.12 277.866 110.12C276.946 110.12 276.234 109.844 275.73 109.292C275.234 108.74 274.986 107.96 274.986 106.952C274.986 105.936 275.238 105.144 275.742 104.576C276.246 104.008 276.946 103.724 277.842 103.724C278.602 103.724 279.206 103.924 279.654 104.324C280.11 104.716 280.378 105.232 280.458 105.872L279.498 105.992ZM283.761 110.12C283.177 110.12 282.705 109.992 282.345 109.736C281.985 109.472 281.781 109.076 281.733 108.548L282.585 108.416C282.633 108.736 282.745 108.972 282.921 109.124C283.105 109.268 283.393 109.34 283.785 109.34C284.217 109.34 284.553 109.26 284.793 109.1C285.033 108.932 285.153 108.692 285.153 108.38C285.153 108.124 285.089 107.92 284.961 107.768C284.833 107.616 284.673 107.5 284.481 107.42C284.289 107.34 284.025 107.252 283.689 107.156C283.313 107.052 283.005 106.952 282.765 106.856C282.533 106.752 282.333 106.592 282.165 106.376C282.005 106.16 281.925 105.868 281.925 105.5C281.925 105.116 282.025 104.792 282.225 104.528C282.433 104.256 282.697 104.056 283.017 103.928C283.345 103.792 283.693 103.724 284.061 103.724C284.565 103.724 284.997 103.852 285.357 104.108C285.725 104.356 285.937 104.708 285.993 105.164L285.165 105.308C285.069 105.036 284.929 104.836 284.745 104.708C284.561 104.58 284.281 104.516 283.905 104.516C283.577 104.516 283.321 104.588 283.137 104.732C282.953 104.868 282.861 105.064 282.861 105.32C282.861 105.536 282.921 105.712 283.041 105.848C283.161 105.976 283.309 106.08 283.485 106.16C283.661 106.232 283.905 106.316 284.217 106.412C284.625 106.54 284.949 106.664 285.189 106.784C285.437 106.896 285.649 107.076 285.825 107.324C286.001 107.564 286.089 107.888 286.089 108.296C286.089 108.904 285.865 109.36 285.417 109.664C284.969 109.968 284.417 110.12 283.761 110.12ZM292.783 111.488C291.623 111.488 290.647 111.264 289.855 110.816C289.063 110.368 288.471 109.764 288.079 109.004C287.687 108.244 287.491 107.392 287.491 106.448C287.491 105.472 287.699 104.576 288.115 103.76C288.531 102.944 289.135 102.296 289.927 101.816C290.727 101.336 291.667 101.096 292.747 101.096C293.699 101.096 294.539 101.284 295.267 101.66C295.995 102.036 296.559 102.568 296.959 103.256C297.367 103.944 297.571 104.748 297.571 105.668C297.571 106.316 297.467 106.892 297.259 107.396C297.059 107.892 296.779 108.276 296.419 108.548C296.067 108.82 295.667 108.956 295.219 108.956C294.627 108.956 294.247 108.692 294.079 108.164C293.975 108.34 293.775 108.516 293.479 108.692C293.191 108.86 292.855 108.944 292.471 108.944C292.111 108.944 291.759 108.852 291.415 108.668C291.079 108.484 290.799 108.196 290.575 107.804C290.351 107.404 290.239 106.9 290.239 106.292C290.239 105.724 290.339 105.252 290.539 104.876C290.739 104.492 291.003 104.208 291.331 104.024C291.667 103.832 292.035 103.736 292.435 103.736C292.779 103.736 293.079 103.8 293.335 103.928C293.591 104.048 293.783 104.2 293.911 104.384V103.82H294.775V107.576C294.775 107.768 294.827 107.92 294.931 108.032C295.035 108.136 295.179 108.188 295.363 108.188C295.603 108.188 295.823 108.096 296.023 107.912C296.223 107.728 296.383 107.452 296.503 107.084C296.631 106.716 296.695 106.272 296.695 105.752C296.695 104.904 296.527 104.184 296.191 103.592C295.863 103 295.403 102.56 294.811 102.272C294.227 101.976 293.555 101.828 292.795 101.828C291.939 101.828 291.175 102.012 290.503 102.38C289.839 102.748 289.319 103.272 288.943 103.952C288.575 104.632 288.391 105.424 288.391 106.328C288.391 107.2 288.567 107.972 288.919 108.644C289.279 109.308 289.795 109.824 290.467 110.192C291.147 110.568 291.955 110.756 292.891 110.756C293.363 110.756 293.823 110.712 294.271 110.624C294.719 110.544 295.095 110.444 295.399 110.324L295.423 110.336L295.567 111.02C295.327 111.14 294.939 111.248 294.403 111.344C293.875 111.44 293.335 111.488 292.783 111.488ZM291.139 106.256C291.139 106.88 291.275 107.36 291.547 107.696C291.827 108.024 292.191 108.188 292.639 108.188C293.159 108.188 293.579 107.98 293.899 107.564V105.224C293.731 104.976 293.539 104.788 293.323 104.66C293.115 104.532 292.863 104.468 292.567 104.468C292.071 104.468 291.707 104.632 291.475 104.96C291.251 105.288 291.139 105.72 291.139 106.256ZM299.332 103.844H300.184L300.232 104.636C300.696 104.028 301.34 103.724 302.164 103.724C302.892 103.724 303.468 103.988 303.892 104.516C304.324 105.044 304.54 105.78 304.54 106.724C304.54 107.436 304.416 108.048 304.168 108.56C303.92 109.072 303.588 109.46 303.172 109.724C302.764 109.988 302.312 110.12 301.816 110.12C301.184 110.12 300.668 109.928 300.268 109.544V112.16H299.332V103.844ZM300.268 108.596C300.428 108.812 300.652 108.988 300.94 109.124C301.228 109.26 301.528 109.328 301.84 109.328C302.36 109.328 302.78 109.108 303.1 108.668C303.42 108.228 303.58 107.608 303.58 106.808C303.58 106.056 303.44 105.488 303.16 105.104C302.888 104.72 302.484 104.528 301.948 104.528C301.236 104.528 300.676 104.868 300.268 105.548V108.596ZM306.269 101.156H307.205V110H306.269V101.156ZM309.067 110.648C309.083 110.776 309.111 110.888 309.151 110.984C309.199 111.104 309.263 111.2 309.343 111.272C309.431 111.344 309.571 111.38 309.763 111.38C309.963 111.38 310.107 111.328 310.195 111.224C310.291 111.128 310.379 110.992 310.459 110.816C310.571 110.56 310.643 110.316 310.675 110.084L308.359 103.844H309.427L310.855 108.128L311.155 109.1L311.467 108.128L312.871 103.844H313.891L311.299 110.924C311.155 111.3 310.959 111.6 310.711 111.824C310.471 112.048 310.127 112.16 309.679 112.16C309.319 112.16 309.031 112.092 308.815 111.956C308.599 111.82 308.447 111.656 308.359 111.464C308.255 111.232 308.203 111.024 308.203 110.84L309.067 110.648ZM315.021 110.648C315.037 110.776 315.065 110.888 315.105 110.984C315.153 111.104 315.217 111.2 315.297 111.272C315.385 111.344 315.525 111.38 315.717 111.38C315.917 111.38 316.061 111.328 316.149 111.224C316.245 111.128 316.333 110.992 316.413 110.816C316.525 110.56 316.597 110.316 316.629 110.084L314.313 103.844H315.381L316.809 108.128L317.109 109.1L317.421 108.128L318.825 103.844H319.845L317.253 110.924C317.109 111.3 316.913 111.6 316.665 111.824C316.425 112.048 316.081 112.16 315.633 112.16C315.273 112.16 314.985 112.092 314.769 111.956C314.553 111.82 314.401 111.656 314.313 111.464C314.209 111.232 314.157 111.024 314.157 110.84L315.021 110.648ZM321.886 109.16V110.36H320.854V109.16H321.886ZM327.897 105.992C327.849 105.504 327.681 105.136 327.393 104.888C327.105 104.64 326.713 104.516 326.217 104.516C325.601 104.516 325.133 104.728 324.813 105.152C324.501 105.568 324.345 106.16 324.345 106.928C324.345 107.696 324.505 108.288 324.825 108.704C325.153 109.112 325.653 109.316 326.325 109.316C326.829 109.316 327.217 109.212 327.489 109.004C327.769 108.796 327.917 108.504 327.933 108.128L328.881 108.14C328.793 108.772 328.521 109.26 328.065 109.604C327.617 109.948 327.017 110.12 326.265 110.12C325.345 110.12 324.633 109.844 324.129 109.292C323.633 108.74 323.385 107.96 323.385 106.952C323.385 105.936 323.637 105.144 324.141 104.576C324.645 104.008 325.345 103.724 326.241 103.724C327.001 103.724 327.605 103.924 328.053 104.324C328.509 104.716 328.777 105.232 328.857 105.872L327.897 105.992ZM333.072 110.12C332.496 110.12 331.996 109.988 331.572 109.724C331.148 109.46 330.82 109.084 330.588 108.596C330.364 108.1 330.252 107.52 330.252 106.856C330.252 106.232 330.368 105.684 330.6 105.212C330.832 104.74 331.16 104.376 331.584 104.12C332.008 103.856 332.504 103.724 333.072 103.724C333.64 103.724 334.14 103.856 334.572 104.12C335.004 104.376 335.336 104.74 335.568 105.212C335.808 105.684 335.928 106.232 335.928 106.856C335.928 107.52 335.812 108.1 335.58 108.596C335.348 109.084 335.016 109.46 334.584 109.724C334.152 109.988 333.648 110.12 333.072 110.12ZM331.212 106.844C331.212 107.636 331.372 108.252 331.692 108.692C332.012 109.124 332.472 109.34 333.072 109.34C333.68 109.34 334.148 109.124 334.476 108.692C334.804 108.252 334.968 107.636 334.968 106.844C334.968 106.092 334.804 105.516 334.476 105.116C334.156 104.708 333.688 104.504 333.072 104.504C332.464 104.504 332 104.708 331.68 105.116C331.368 105.516 331.212 106.092 331.212 106.844ZM337.736 103.844H338.588L338.636 104.768C338.836 104.44 339.104 104.184 339.44 104C339.776 103.816 340.156 103.724 340.58 103.724C340.924 103.724 341.232 103.828 341.504 104.036C341.784 104.244 341.988 104.544 342.116 104.936C342.308 104.552 342.58 104.256 342.932 104.048C343.284 103.832 343.692 103.724 344.156 103.724C344.46 103.724 344.736 103.808 344.984 103.976C345.24 104.136 345.444 104.376 345.596 104.696C345.748 105.016 345.824 105.404 345.824 105.86V110H344.888V105.992C344.888 105.064 344.508 104.6 343.748 104.6C343.268 104.6 342.896 104.78 342.632 105.14C342.376 105.492 342.248 105.948 342.248 106.508V110H341.312V105.992C341.312 105.064 340.932 104.6 340.172 104.6C339.692 104.6 339.32 104.78 339.056 105.14C338.8 105.492 338.672 105.948 338.672 106.508V110H337.736V103.844Z" fill="#F5F5F5"/>
<path d="M33.044 127.804C33.044 127.02 33.176 126.356 33.44 125.812C33.704 125.268 34.052 124.864 34.484 124.6C34.916 124.336 35.384 124.204 35.888 124.204C36.384 124.204 36.844 124.336 37.268 124.6C37.7 124.864 38.044 125.268 38.3 125.812C38.564 126.356 38.696 127.02 38.696 127.804C38.696 128.588 38.564 129.252 38.3 129.796C38.044 130.34 37.7 130.744 37.268 131.008C36.844 131.272 36.384 131.404 35.888 131.404C35.384 131.404 34.916 131.272 34.484 131.008C34.052 130.744 33.704 130.34 33.44 129.796C33.176 129.252 33.044 128.588 33.044 127.804ZM33.956 127.804C33.956 128.396 34.044 128.904 34.22 129.328C34.404 129.744 34.644 130.06 34.94 130.276C35.236 130.484 35.552 130.588 35.888 130.588C36.224 130.588 36.536 130.484 36.824 130.276C37.112 130.06 37.344 129.744 37.52 129.328C37.696 128.904 37.784 128.396 37.784 127.804C37.784 127.204 37.696 126.696 37.52 126.28C37.344 125.856 37.112 125.54 36.824 125.332C36.536 125.124 36.224 125.02 35.888 125.02C35.544 125.02 35.224 125.128 34.928 125.344C34.64 125.552 34.404 125.864 34.22 126.28C34.044 126.696 33.956 127.204 33.956 127.804ZM40.7 123.34H41.636V134.068H40.7V123.34ZM44.9231 125.644C44.9231 125.228 45.0551 124.86 45.3191 124.54C45.5911 124.212 45.9991 123.956 46.5431 123.772C47.0871 123.58 47.7591 123.484 48.5591 123.484C49.3591 123.484 50.0271 123.58 50.5631 123.772C51.1071 123.956 51.5111 124.212 51.7751 124.54C52.0471 124.86 52.1831 125.228 52.1831 125.644C52.1831 126.012 52.0831 126.344 51.8831 126.64C51.6831 126.928 51.3831 127.168 50.9831 127.36V128.764H53.5511V129.568H43.5671V128.764H46.1591V127.372C45.7511 127.18 45.4431 126.936 45.2351 126.64C45.0271 126.336 44.9231 126.004 44.9231 125.644ZM44.9471 132.34C44.9471 131.764 45.2551 131.296 45.8711 130.936C46.4871 130.576 47.3911 130.396 48.5831 130.396C49.7751 130.396 50.6751 130.576 51.2831 130.936C51.8991 131.296 52.2071 131.764 52.2071 132.34C52.2071 132.924 51.9031 133.392 51.2951 133.744C50.6871 134.096 49.7831 134.272 48.5831 134.272C47.3831 134.272 46.4751 134.096 45.8591 133.744C45.2511 133.392 44.9471 132.924 44.9471 132.34ZM45.8711 132.328C45.8711 132.664 46.0951 132.948 46.5431 133.18C46.9911 133.412 47.6711 133.528 48.5831 133.528C49.4951 133.528 50.1711 133.412 50.6111 133.18C51.0591 132.956 51.2831 132.672 51.2831 132.328C51.2831 131.984 51.0631 131.7 50.6231 131.476C50.1831 131.252 49.5031 131.14 48.5831 131.14C47.6631 131.14 46.9791 131.252 46.5311 131.476C46.0911 131.7 45.8711 131.984 45.8711 132.328ZM45.8711 125.644C45.8711 126.052 46.1031 126.38 46.5671 126.628C47.0391 126.868 47.7031 126.988 48.5591 126.988C49.4151 126.988 50.0751 126.868 50.5391 126.628C51.0031 126.38 51.2351 126.052 51.2351 125.644C51.2351 125.228 51.0031 124.9 50.5391 124.66C50.0831 124.42 49.4231 124.3 48.5591 124.3C47.6951 124.3 47.0311 124.42 46.5671 124.66C46.1031 124.9 45.8711 125.228 45.8711 125.644ZM50.0711 128.764V127.66C49.6391 127.756 49.1351 127.804 48.5591 127.804C47.9991 127.804 47.5031 127.756 47.0711 127.66V128.764H50.0711ZM54.7861 126.52C54.7861 125.992 54.9101 125.532 55.1581 125.14C55.4061 124.748 55.7461 124.448 56.1781 124.24C56.6101 124.024 57.0981 123.916 57.6421 123.916C58.1861 123.916 58.6741 124.02 59.1061 124.228C59.5381 124.436 59.8781 124.74 60.1261 125.14C60.3741 125.532 60.4981 125.992 60.4981 126.52C60.4981 127.04 60.3741 127.496 60.1261 127.888C59.8781 128.28 59.5381 128.58 59.1061 128.788C58.6741 128.996 58.1861 129.1 57.6421 129.1C57.0981 129.1 56.6101 128.996 56.1781 128.788C55.7461 128.58 55.4061 128.28 55.1581 127.888C54.9101 127.496 54.7861 127.04 54.7861 126.52ZM55.7461 126.52C55.7461 127.04 55.9261 127.46 56.2861 127.78C56.6541 128.1 57.1061 128.26 57.6421 128.26C57.9861 128.26 58.3021 128.188 58.5901 128.044C58.8781 127.9 59.1061 127.696 59.2741 127.432C59.4501 127.168 59.5381 126.864 59.5381 126.52C59.5381 126.176 59.4501 125.872 59.2741 125.608C59.1061 125.336 58.8781 125.128 58.5901 124.984C58.3021 124.832 57.9861 124.756 57.6421 124.756C57.2981 124.756 56.9781 124.832 56.6821 124.984C56.3941 125.128 56.1661 125.336 55.9981 125.608C55.8301 125.872 55.7461 126.176 55.7461 126.52ZM56.4541 130.408H63.3421V134.2H62.4061V131.212H56.4541V130.408ZM62.4061 123.34H63.3421V124.876H64.8661V125.656H63.3421V127.276H64.8661V128.056H63.3421V129.424H62.4061V123.34ZM71.9572 124.048V124.912C71.9572 126.024 71.7892 127.072 71.4532 128.056L70.6852 127.9C70.9092 127.028 71.0212 126.1 71.0212 125.116V124.852H66.4852V124.048H71.9572ZM67.4092 129.112H67.8412V126.64H68.7292V127.612V129.1C70.6972 129.044 72.3092 128.848 73.5652 128.512V123.34H74.5012V126.7H76.0372V127.516H74.5012V131.344H73.5652V129.208C72.8532 129.44 71.9852 129.616 70.9612 129.736C69.9372 129.856 68.8252 129.916 67.6252 129.916H65.8132L65.7412 129.112H67.4092ZM67.6732 131.044H68.6092V133.384H74.8852V134.2H67.6732V131.044Z" fill="#F5F5F5"/>
<path d="M89.824 124.276V125.044C89.824 126.5 89.54 127.776 88.972 128.872C88.412 129.96 87.472 130.96 86.152 131.872L85.6 131.176C86.8 130.4 87.652 129.528 88.156 128.56C88.66 127.592 88.912 126.544 88.912 125.416V125.068H85.84V124.276H89.824ZM91.288 123.508H92.224V127.504H94.024V123.34H94.96V134.068H94.024V128.284H92.224V133.864H91.288V123.508ZM97.0111 126.604C97.0111 126.068 97.1391 125.6 97.3951 125.2C97.6591 124.792 98.0151 124.484 98.4631 124.276C98.9111 124.06 99.4031 123.952 99.9391 123.952C100.475 123.952 100.963 124.06 101.403 124.276C101.851 124.484 102.207 124.788 102.471 125.188C102.735 125.588 102.867 126.06 102.867 126.604C102.867 127.132 102.735 127.596 102.471 127.996C102.207 128.396 101.851 128.704 101.403 128.92C100.963 129.128 100.475 129.232 99.9391 129.232C99.4031 129.232 98.9111 129.128 98.4631 128.92C98.0151 128.704 97.6591 128.396 97.3951 127.996C97.1391 127.596 97.0111 127.132 97.0111 126.604ZM97.9591 126.604C97.9591 126.98 98.0471 127.308 98.2231 127.588C98.4071 127.868 98.6471 128.084 98.9431 128.236C99.2471 128.38 99.5791 128.452 99.9391 128.452C100.299 128.452 100.627 128.38 100.923 128.236C101.227 128.084 101.467 127.868 101.643 127.588C101.827 127.308 101.919 126.98 101.919 126.604C101.919 126.228 101.827 125.9 101.643 125.62C101.467 125.332 101.227 125.112 100.923 124.96C100.619 124.808 100.291 124.732 99.9391 124.732C99.5791 124.732 99.2471 124.808 98.9431 124.96C98.6471 125.112 98.4071 125.332 98.2231 125.62C98.0471 125.9 97.9591 126.228 97.9591 126.604ZM98.9671 130.768H99.9031V133.384H105.951V134.2H98.9671V130.768ZM104.739 123.34H105.675V130.924H104.739V123.34ZM113.75 124.156V124.948H111.422V125.368C111.422 125.728 111.514 126.104 111.698 126.496C111.89 126.88 112.146 127.224 112.466 127.528C112.866 127.904 113.386 128.208 114.026 128.44L113.666 129.292C113.362 129.18 113.038 129.02 112.694 128.812C112.35 128.604 112.054 128.376 111.806 128.128C111.438 127.76 111.17 127.368 111.002 126.952C110.762 127.616 110.406 128.172 109.934 128.62C109.462 129.068 108.89 129.456 108.218 129.784L107.726 128.98C108.534 128.652 109.194 128.164 109.706 127.516C110.226 126.86 110.486 126.12 110.486 125.296V124.948H108.05V124.156H113.75ZM109.85 132.136C109.85 131.736 109.982 131.376 110.246 131.056C110.51 130.728 110.906 130.468 111.434 130.276C111.97 130.084 112.618 129.988 113.378 129.988C114.138 129.988 114.782 130.084 115.31 130.276C115.838 130.468 116.234 130.728 116.498 131.056C116.762 131.376 116.894 131.736 116.894 132.136C116.894 132.544 116.762 132.908 116.498 133.228C116.234 133.548 115.838 133.8 115.31 133.984C114.782 134.176 114.138 134.272 113.378 134.272C112.618 134.272 111.97 134.176 111.434 133.984C110.906 133.8 110.51 133.548 110.246 133.228C109.982 132.908 109.85 132.544 109.85 132.136ZM110.786 132.136C110.786 132.384 110.886 132.616 111.086 132.832C111.286 133.04 111.582 133.208 111.974 133.336C112.366 133.464 112.834 133.528 113.378 133.528C113.922 133.528 114.39 133.464 114.782 133.336C115.174 133.208 115.466 133.04 115.658 132.832C115.858 132.616 115.958 132.384 115.958 132.136C115.958 131.872 115.858 131.636 115.658 131.428C115.466 131.212 115.174 131.044 114.782 130.924C114.398 130.796 113.93 130.732 113.378 130.732C112.826 130.732 112.354 130.796 111.962 130.924C111.578 131.044 111.286 131.212 111.086 131.428C110.886 131.636 110.786 131.872 110.786 132.136ZM113.774 126.148H115.778V123.34H116.714V129.532H115.778V126.952H113.774V126.148ZM120.961 124.204V125.8H126.289V124.204H127.225V129.676H124.225V132.076H128.629V132.892H118.645V132.076H123.241V129.676H120.049V124.204H120.961ZM126.289 128.86V126.604H120.961V128.86H126.289ZM134.766 124.204V125.8H140.094V124.204H141.03V129.676H138.03V132.076H142.434V132.892H132.45V132.076H137.046V129.676H133.854V124.204H134.766ZM140.094 128.86V126.604H134.766V128.86H140.094ZM148.013 124.744V123.316H148.949V124.744H152.621V125.56H144.293V124.744H148.013ZM143.489 132.088H148.013V130.672C147.365 130.632 146.829 130.508 146.405 130.3C145.981 130.092 145.673 129.84 145.481 129.544C145.289 129.24 145.193 128.916 145.193 128.572C145.193 128.204 145.305 127.86 145.529 127.54C145.753 127.212 146.113 126.948 146.609 126.748C147.105 126.54 147.733 126.436 148.493 126.436C149.253 126.436 149.877 126.54 150.365 126.748C150.861 126.948 151.221 127.212 151.445 127.54C151.669 127.86 151.781 128.204 151.781 128.572C151.781 128.916 151.685 129.24 151.493 129.544C151.301 129.84 150.993 130.092 150.569 130.3C150.145 130.508 149.605 130.632 148.949 130.672V132.088H153.473V132.892H143.489V132.088ZM146.129 128.572C146.129 128.764 146.201 128.96 146.345 129.16C146.489 129.352 146.737 129.516 147.089 129.652C147.449 129.788 147.917 129.856 148.493 129.856C149.069 129.856 149.533 129.792 149.885 129.664C150.237 129.528 150.485 129.364 150.629 129.172C150.773 128.972 150.845 128.772 150.845 128.572C150.845 128.236 150.661 127.94 150.293 127.684C149.933 127.42 149.333 127.288 148.493 127.288C147.653 127.288 147.049 127.42 146.681 127.684C146.313 127.94 146.129 128.236 146.129 128.572ZM160.672 124.156V124.948H158.344V125.368C158.344 125.728 158.436 126.104 158.62 126.496C158.812 126.88 159.068 127.224 159.388 127.528C159.788 127.904 160.308 128.208 160.948 128.44L160.588 129.292C160.284 129.18 159.96 129.02 159.616 128.812C159.272 128.604 158.976 128.376 158.728 128.128C158.36 127.76 158.092 127.368 157.924 126.952C157.684 127.616 157.328 128.172 156.856 128.62C156.384 129.068 155.812 129.456 155.14 129.784L154.648 128.98C155.456 128.652 156.116 128.164 156.628 127.516C157.148 126.86 157.408 126.12 157.408 125.296V124.948H154.972V124.156H160.672ZM156.772 132.136C156.772 131.736 156.904 131.376 157.168 131.056C157.432 130.728 157.828 130.468 158.356 130.276C158.892 130.084 159.54 129.988 160.3 129.988C161.06 129.988 161.704 130.084 162.232 130.276C162.76 130.468 163.156 130.728 163.42 131.056C163.684 131.376 163.816 131.736 163.816 132.136C163.816 132.544 163.684 132.908 163.42 133.228C163.156 133.548 162.76 133.8 162.232 133.984C161.704 134.176 161.06 134.272 160.3 134.272C159.54 134.272 158.892 134.176 158.356 133.984C157.828 133.8 157.432 133.548 157.168 133.228C156.904 132.908 156.772 132.544 156.772 132.136ZM157.708 132.136C157.708 132.384 157.808 132.616 158.008 132.832C158.208 133.04 158.504 133.208 158.896 133.336C159.288 133.464 159.756 133.528 160.3 133.528C160.844 133.528 161.312 133.464 161.704 133.336C162.096 133.208 162.388 133.04 162.58 132.832C162.78 132.616 162.88 132.384 162.88 132.136C162.88 131.872 162.78 131.636 162.58 131.428C162.388 131.212 162.096 131.044 161.704 130.924C161.32 130.796 160.852 130.732 160.3 130.732C159.748 130.732 159.276 130.796 158.884 130.924C158.5 131.044 158.208 131.212 158.008 131.428C157.808 131.636 157.708 131.872 157.708 132.136ZM160.696 126.148H162.7V123.34H163.636V129.532H162.7V126.952H160.696V126.148ZM167.763 124.696V123.484H168.699V124.696H170.535V125.512H168.675C168.683 126.384 168.995 127.14 169.611 127.78C169.939 128.132 170.335 128.416 170.799 128.632L170.367 129.388C169.839 129.124 169.383 128.772 168.999 128.332C168.671 127.948 168.427 127.528 168.267 127.072C167.891 128.232 167.143 129.156 166.023 129.844L165.507 129.124C166.227 128.652 166.783 128.124 167.175 127.54C167.575 126.956 167.779 126.28 167.787 125.512H165.675V124.696H167.763ZM168.027 130.42H175.011V134.2H174.075V131.212H168.027V130.42ZM171.627 123.508H172.563V126.16H174.063V123.34H174.999V129.628H174.063V126.94H172.563V129.496H171.627V123.508Z" fill="#F5F5F5"/>
<path d="M194.012 123.88V124.744C194.012 125.256 193.956 125.976 193.844 126.904C193.74 127.824 193.616 128.564 193.472 129.124H195.512V129.916H190.868V134.2H189.932V129.916H185.528V129.124H192.644C192.748 128.612 192.844 127.872 192.932 126.904C192.028 127.048 191.144 127.148 190.28 127.204C189.416 127.252 188.332 127.292 187.028 127.324L186.896 126.532C187.104 126.524 187.412 126.52 187.82 126.52C188.988 126.496 189.948 126.464 190.7 126.424C191.452 126.384 192.212 126.304 192.98 126.184C193.02 125.608 193.04 125.188 193.04 124.924V124.672H187.076V123.88H194.012ZM202.615 124.372V125.092C202.615 126.572 202.207 127.88 201.391 129.016C200.575 130.144 199.307 131.124 197.587 131.956L197.095 131.248C199.119 130.312 200.471 129.12 201.151 127.672L200.047 127.876C199.271 127.996 198.347 128.08 197.275 128.128L197.203 127.336C199.211 127.232 200.619 127.116 201.427 126.988C201.587 126.476 201.667 125.956 201.667 125.428V125.164H197.539V124.372H202.615ZM204.739 123.34H205.675V134.068H204.739V123.34ZM213.75 124.156V124.948H211.422V125.368C211.422 125.728 211.514 126.104 211.698 126.496C211.89 126.88 212.146 127.224 212.466 127.528C212.866 127.904 213.386 128.208 214.026 128.44L213.666 129.292C213.362 129.18 213.038 129.02 212.694 128.812C212.35 128.604 212.054 128.376 211.806 128.128C211.438 127.76 211.17 127.368 211.002 126.952C210.762 127.616 210.406 128.172 209.934 128.62C209.462 129.068 208.89 129.456 208.218 129.784L207.726 128.98C208.534 128.652 209.194 128.164 209.706 127.516C210.226 126.86 210.486 126.12 210.486 125.296V124.948H208.05V124.156H213.75ZM209.85 132.136C209.85 131.736 209.982 131.376 210.246 131.056C210.51 130.728 210.906 130.468 211.434 130.276C211.97 130.084 212.618 129.988 213.378 129.988C214.138 129.988 214.782 130.084 215.31 130.276C215.838 130.468 216.234 130.728 216.498 131.056C216.762 131.376 216.894 131.736 216.894 132.136C216.894 132.544 216.762 132.908 216.498 133.228C216.234 133.548 215.838 133.8 215.31 133.984C214.782 134.176 214.138 134.272 213.378 134.272C212.618 134.272 211.97 134.176 211.434 133.984C210.906 133.8 210.51 133.548 210.246 133.228C209.982 132.908 209.85 132.544 209.85 132.136ZM210.786 132.136C210.786 132.384 210.886 132.616 211.086 132.832C211.286 133.04 211.582 133.208 211.974 133.336C212.366 133.464 212.834 133.528 213.378 133.528C213.922 133.528 214.39 133.464 214.782 133.336C215.174 133.208 215.466 133.04 215.658 132.832C215.858 132.616 215.958 132.384 215.958 132.136C215.958 131.872 215.858 131.636 215.658 131.428C215.466 131.212 215.174 131.044 214.782 130.924C214.398 130.796 213.93 130.732 213.378 130.732C212.826 130.732 212.354 130.796 211.962 130.924C211.578 131.044 211.286 131.212 211.086 131.428C210.886 131.636 210.786 131.872 210.786 132.136ZM213.774 126.148H215.778V123.34H216.714V129.532H215.778V126.952H213.774V126.148ZM220.841 124.696V123.484H221.777V124.696H223.613V125.512H221.753C221.761 126.384 222.073 127.14 222.689 127.78C223.017 128.132 223.413 128.416 223.877 128.632L223.445 129.388C222.917 129.124 222.461 128.772 222.077 128.332C221.749 127.948 221.505 127.528 221.345 127.072C220.969 128.232 220.221 129.156 219.101 129.844L218.585 129.124C219.305 128.652 219.861 128.124 220.253 127.54C220.653 126.956 220.857 126.28 220.865 125.512H218.753V124.696H220.841ZM221.105 130.42H228.089V134.2H227.153V131.212H221.105V130.42ZM224.705 123.508H225.641V126.16H227.141V123.34H228.077V129.628H227.141V126.94H225.641V129.496H224.705V123.508Z" fill="#F5F5F5"/>
<path d="M239.044 124.276H244.984V125.116H240.004V128.308H244.516V129.124H240.004V133H239.044V124.276ZM249.185 125.464L248.453 127.384L247.493 129.82H250.913L249.953 127.384L249.209 125.464H249.185ZM248.741 124.276H249.713L253.193 133H252.161L251.225 130.624H247.181L246.245 133H245.249L248.741 124.276ZM260.938 134.752C260.61 134.52 260.238 134.244 259.822 133.924C259.414 133.604 259.062 133.316 258.766 133.06C258.502 133.1 258.258 133.12 258.034 133.12C257.242 133.12 256.558 132.94 255.982 132.58C255.406 132.212 254.966 131.692 254.662 131.02C254.358 130.34 254.206 129.544 254.206 128.632C254.206 127.72 254.358 126.928 254.662 126.256C254.966 125.584 255.406 125.068 255.982 124.708C256.558 124.34 257.246 124.156 258.046 124.156C258.846 124.156 259.534 124.34 260.11 124.708C260.686 125.068 261.126 125.584 261.43 126.256C261.734 126.928 261.886 127.72 261.886 128.632C261.886 129.624 261.706 130.476 261.346 131.188C260.986 131.9 260.47 132.416 259.798 132.736C260.55 133.304 261.126 133.716 261.526 133.972L260.938 134.752ZM255.202 128.644C255.202 129.828 255.438 130.724 255.91 131.332C256.382 131.94 257.094 132.244 258.046 132.244C258.998 132.244 259.71 131.94 260.182 131.332C260.654 130.724 260.89 129.828 260.89 128.644C260.89 126.236 259.942 125.032 258.046 125.032C256.15 125.032 255.202 126.236 255.202 128.644Z" fill="#F5F5F5"/>
<path d="M273.712 125.164V123.712H274.648V125.164H276.412V125.98H274.624V126.448C274.624 126.96 274.716 127.464 274.9 127.96C275.084 128.456 275.328 128.908 275.632 129.316C275.984 129.764 276.372 130.104 276.796 130.336L276.352 131.092C275.784 130.764 275.308 130.344 274.924 129.832C274.588 129.376 274.34 128.844 274.18 128.236C273.988 128.916 273.704 129.504 273.328 130C272.952 130.488 272.46 130.956 271.852 131.404L271.276 130.708C271.732 130.412 272.144 130.036 272.512 129.58C272.888 129.116 273.184 128.608 273.4 128.056C273.624 127.496 273.736 126.936 273.736 126.376V125.98H271.66V125.164H273.712ZM277.468 123.508H278.404V127.624H280.024V123.34H280.96V134.068H280.024V128.404H278.404V133.744H277.468V123.508ZM283.923 125.644C283.923 125.228 284.055 124.86 284.319 124.54C284.591 124.212 284.999 123.956 285.543 123.772C286.087 123.58 286.759 123.484 287.559 123.484C288.359 123.484 289.027 123.58 289.563 123.772C290.107 123.956 290.511 124.212 290.775 124.54C291.047 124.86 291.183 125.228 291.183 125.644C291.183 126.012 291.083 126.344 290.883 126.64C290.683 126.928 290.383 127.168 289.983 127.36V128.764H292.551V129.568H282.567V128.764H285.159V127.372C284.751 127.18 284.443 126.936 284.235 126.64C284.027 126.336 283.923 126.004 283.923 125.644ZM283.947 132.34C283.947 131.764 284.255 131.296 284.871 130.936C285.487 130.576 286.391 130.396 287.583 130.396C288.775 130.396 289.675 130.576 290.283 130.936C290.899 131.296 291.207 131.764 291.207 132.34C291.207 132.924 290.903 133.392 290.295 133.744C289.687 134.096 288.783 134.272 287.583 134.272C286.383 134.272 285.475 134.096 284.859 133.744C284.251 133.392 283.947 132.924 283.947 132.34ZM284.871 132.328C284.871 132.664 285.095 132.948 285.543 133.18C285.991 133.412 286.671 133.528 287.583 133.528C288.495 133.528 289.171 133.412 289.611 133.18C290.059 132.956 290.283 132.672 290.283 132.328C290.283 131.984 290.063 131.7 289.623 131.476C289.183 131.252 288.503 131.14 287.583 131.14C286.663 131.14 285.979 131.252 285.531 131.476C285.091 131.7 284.871 131.984 284.871 132.328ZM284.871 125.644C284.871 126.052 285.103 126.38 285.567 126.628C286.039 126.868 286.703 126.988 287.559 126.988C288.415 126.988 289.075 126.868 289.539 126.628C290.003 126.38 290.235 126.052 290.235 125.644C290.235 125.228 290.003 124.9 289.539 124.66C289.083 124.42 288.423 124.3 287.559 124.3C286.695 124.3 286.031 124.42 285.567 124.66C285.103 124.9 284.871 125.228 284.871 125.644ZM289.071 128.764V127.66C288.639 127.756 288.135 127.804 287.559 127.804C286.999 127.804 286.503 127.756 286.071 127.66V128.764H289.071ZM302.516 124.156V124.948H300.188V125.368C300.188 125.728 300.28 126.104 300.464 126.496C300.656 126.88 300.912 127.224 301.232 127.528C301.632 127.904 302.152 128.208 302.792 128.44L302.432 129.292C302.128 129.18 301.804 129.02 301.46 128.812C301.116 128.604 300.82 128.376 300.572 128.128C300.204 127.76 299.936 127.368 299.768 126.952C299.528 127.616 299.172 128.172 298.7 128.62C298.228 129.068 297.656 129.456 296.984 129.784L296.492 128.98C297.3 128.652 297.96 128.164 298.472 127.516C298.992 126.86 299.252 126.12 299.252 125.296V124.948H296.816V124.156H302.516ZM298.616 132.136C298.616 131.736 298.748 131.376 299.012 131.056C299.276 130.728 299.672 130.468 300.2 130.276C300.736 130.084 301.384 129.988 302.144 129.988C302.904 129.988 303.548 130.084 304.076 130.276C304.604 130.468 305 130.728 305.264 131.056C305.528 131.376 305.66 131.736 305.66 132.136C305.66 132.544 305.528 132.908 305.264 133.228C305 133.548 304.604 133.8 304.076 133.984C303.548 134.176 302.904 134.272 302.144 134.272C301.384 134.272 300.736 134.176 300.2 133.984C299.672 133.8 299.276 133.548 299.012 133.228C298.748 132.908 298.616 132.544 298.616 132.136ZM299.552 132.136C299.552 132.384 299.652 132.616 299.852 132.832C300.052 133.04 300.348 133.208 300.74 133.336C301.132 133.464 301.6 133.528 302.144 133.528C302.688 133.528 303.156 133.464 303.548 133.336C303.94 133.208 304.232 133.04 304.424 132.832C304.624 132.616 304.724 132.384 304.724 132.136C304.724 131.872 304.624 131.636 304.424 131.428C304.232 131.212 303.94 131.044 303.548 130.924C303.164 130.796 302.696 130.732 302.144 130.732C301.592 130.732 301.12 130.796 300.728 130.924C300.344 131.044 300.052 131.212 299.852 131.428C299.652 131.636 299.552 131.872 299.552 132.136ZM302.54 126.148H304.544V123.34H305.48V129.532H304.544V126.952H302.54V126.148ZM309.727 124.204V125.8H315.055V124.204H315.991V129.676H312.991V132.076H317.395V132.892H307.411V132.076H312.007V129.676H308.815V124.204H309.727ZM315.055 128.86V126.604H309.727V128.86H315.055Z" fill="#F5F5F5"/>
<path d="M38.864 150.864C38.824 150.464 38.688 150.168 38.456 149.976C38.232 149.784 37.912 149.688 37.496 149.688C36.992 149.688 36.608 149.86 36.344 150.204C36.08 150.54 35.948 151.02 35.948 151.644C35.948 152.26 36.084 152.736 36.356 153.072C36.628 153.408 37.036 153.576 37.58 153.576C38.428 153.576 38.864 153.26 38.888 152.628L39.716 152.64C39.636 153.16 39.408 153.564 39.032 153.852C38.656 154.14 38.156 154.284 37.532 154.284C36.772 154.284 36.18 154.056 35.756 153.6C35.332 153.136 35.12 152.488 35.12 151.656C35.12 150.824 35.332 150.172 35.756 149.7C36.18 149.228 36.768 148.992 37.52 148.992C38.152 148.992 38.652 149.156 39.02 149.484C39.396 149.804 39.62 150.232 39.692 150.768L38.864 150.864ZM32.84 151.632C32.84 150.808 33.044 150.048 33.452 149.352C33.868 148.648 34.424 148.092 35.12 147.684C35.824 147.268 36.588 147.06 37.412 147.06C38.236 147.06 39 147.268 39.704 147.684C40.408 148.092 40.964 148.648 41.372 149.352C41.788 150.048 41.996 150.808 41.996 151.632C41.996 152.456 41.788 153.22 41.372 153.924C40.964 154.628 40.408 155.188 39.704 155.604C39 156.012 38.236 156.216 37.412 156.216C36.588 156.216 35.824 156.012 35.12 155.604C34.424 155.188 33.868 154.628 33.452 153.924C33.044 153.22 32.84 152.456 32.84 151.632ZM33.56 151.644C33.56 152.364 33.732 153.024 34.076 153.624C34.42 154.216 34.884 154.684 35.468 155.028C36.06 155.372 36.708 155.544 37.412 155.544C38.116 155.544 38.764 155.372 39.356 155.028C39.948 154.684 40.416 154.216 40.76 153.624C41.104 153.024 41.276 152.364 41.276 151.644C41.276 150.924 41.104 150.264 40.76 149.664C40.416 149.064 39.948 148.592 39.356 148.248C38.764 147.904 38.116 147.732 37.412 147.732C36.708 147.732 36.06 147.904 35.468 148.248C34.884 148.592 34.42 149.064 34.076 149.664C33.732 150.264 33.56 150.924 33.56 151.644ZM46.1935 155.16C47.3055 154.144 48.4575 153.068 49.6495 151.932C50.1375 151.468 50.4855 151.06 50.6935 150.708C50.9095 150.348 51.0175 149.948 51.0175 149.508C51.0175 148.996 50.8615 148.612 50.5495 148.356C50.2455 148.1 49.8095 147.972 49.2415 147.972C48.6095 147.972 48.1455 148.124 47.8495 148.428C47.5535 148.724 47.4055 149.096 47.4055 149.544C47.4055 149.648 47.4095 149.724 47.4175 149.772L46.3735 149.916C46.3655 149.86 46.3615 149.776 46.3615 149.664C46.3615 149.232 46.4695 148.828 46.6855 148.452C46.9095 148.068 47.2415 147.756 47.6815 147.516C48.1215 147.276 48.6615 147.156 49.3015 147.156C50.1575 147.156 50.8215 147.368 51.2935 147.792C51.7655 148.216 52.0015 148.788 52.0015 149.508C52.0015 150.052 51.8735 150.548 51.6175 150.996C51.3695 151.436 50.9735 151.908 50.4295 152.412L49.5775 153.204C48.9615 153.788 48.2535 154.44 47.4535 155.16H52.0975V156H46.1935V155.16ZM56.3299 156.12C55.7539 156.12 55.2419 155.936 54.7939 155.568C54.3539 155.192 54.0059 154.66 53.7499 153.972C53.5019 153.276 53.3779 152.468 53.3779 151.548C53.3779 150.676 53.5019 149.908 53.7499 149.244C54.0059 148.58 54.3539 148.068 54.7939 147.708C55.2419 147.34 55.7539 147.156 56.3299 147.156C56.9059 147.156 57.4179 147.34 57.8659 147.708C58.3139 148.068 58.6619 148.58 58.9099 149.244C59.1579 149.908 59.2819 150.676 59.2819 151.548C59.2819 152.468 59.1579 153.276 58.9099 153.972C58.6619 154.66 58.3139 155.192 57.8659 155.568C57.4179 155.936 56.9059 156.12 56.3299 156.12ZM54.3619 151.524C54.3619 152.716 54.5299 153.64 54.8659 154.296C55.2019 154.944 55.6899 155.268 56.3299 155.268C56.9779 155.268 57.4659 154.944 57.7939 154.296C58.1299 153.648 58.2979 152.724 58.2979 151.524C58.2979 150.388 58.1339 149.52 57.8059 148.92C57.4779 148.312 56.9859 148.008 56.3299 148.008C55.6739 148.008 55.1819 148.312 54.8539 148.92C54.5259 149.52 54.3619 150.388 54.3619 151.524ZM60.4903 155.16C61.6023 154.144 62.7543 153.068 63.9463 151.932C64.4343 151.468 64.7823 151.06 64.9903 150.708C65.2063 150.348 65.3143 149.948 65.3143 149.508C65.3143 148.996 65.1583 148.612 64.8463 148.356C64.5423 148.1 64.1063 147.972 63.5383 147.972C62.9063 147.972 62.4423 148.124 62.1463 148.428C61.8503 148.724 61.7023 149.096 61.7023 149.544C61.7023 149.648 61.7063 149.724 61.7143 149.772L60.6703 149.916C60.6623 149.86 60.6583 149.776 60.6583 149.664C60.6583 149.232 60.7663 148.828 60.9823 148.452C61.2063 148.068 61.5383 147.756 61.9783 147.516C62.4183 147.276 62.9583 147.156 63.5983 147.156C64.4543 147.156 65.1183 147.368 65.5903 147.792C66.0623 148.216 66.2983 148.788 66.2983 149.508C66.2983 150.052 66.1703 150.548 65.9143 150.996C65.6663 151.436 65.2703 151.908 64.7263 152.412L63.8743 153.204C63.2583 153.788 62.5503 154.44 61.7503 155.16H66.3943V156H60.4903V155.16ZM71.7908 147.276H72.6908V153.24H73.8668V154.056H72.6908V156H71.7548V154.056H67.3988V153.264L71.7908 147.276ZM71.7548 153.24V148.62L68.3948 153.24H71.7548ZM78.0088 147.276H81.4288C82.3008 147.276 82.9848 147.488 83.4808 147.912C83.9848 148.336 84.2368 148.92 84.2368 149.664C84.2368 150.152 84.1248 150.612 83.9008 151.044C83.6848 151.476 83.3448 151.828 82.8808 152.1C82.4248 152.364 81.8528 152.496 81.1648 152.496H78.9688V156H78.0088V147.276ZM81.4168 151.68C81.9128 151.68 82.3368 151.52 82.6888 151.2C83.0488 150.872 83.2288 150.372 83.2288 149.7C83.2288 149.108 83.0648 148.696 82.7368 148.464C82.4088 148.232 81.9168 148.116 81.2608 148.116H78.9688V151.68H81.4168ZM85.8487 147.276H86.8087V155.16H91.5487V156H85.8487V147.276ZM94.2342 152.628L91.0902 147.276H92.1702L93.9702 150.384L94.7262 151.68H94.7502L97.2942 147.276H98.3382L95.1942 152.628V156H94.2342V152.628ZM101.84 152.628L98.6956 147.276H99.7756L101.576 150.384L102.332 151.68H102.356L104.9 147.276H105.944L102.8 152.628V156H101.84V152.628ZM106.714 155.16V156.36H105.682V155.16H106.714ZM114.47 148.464L113.738 150.384L112.778 152.82H116.198L115.238 150.384L114.494 148.464H114.47ZM114.026 147.276H114.998L118.478 156H117.446L116.51 153.624H112.466L111.53 156H110.534L114.026 147.276ZM119.761 147.156H120.697V156H119.761V147.156ZM122.668 147.156H123.604V156H122.668V147.156ZM128.423 149.844H129.275L129.323 150.948C129.507 150.572 129.751 150.276 130.055 150.06C130.367 149.836 130.731 149.724 131.147 149.724C131.675 149.724 132.067 149.888 132.323 150.216C132.587 150.544 132.699 151.016 132.659 151.632L131.795 151.836C131.795 151.404 131.735 151.088 131.615 150.888C131.503 150.688 131.279 150.588 130.943 150.588C130.479 150.588 130.111 150.792 129.839 151.2C129.567 151.608 129.407 152.116 129.359 152.724V156H128.423V149.844ZM134.117 149.844H135.053V156H134.117V149.844ZM134.093 147.072H135.077V148.488H134.093V147.072ZM139.135 153.624C138.831 153.624 138.567 153.596 138.343 153.54C138.135 153.604 137.983 153.696 137.887 153.816C137.791 153.928 137.743 154.056 137.743 154.2C137.743 154.352 137.803 154.464 137.923 154.536C138.051 154.608 138.283 154.644 138.619 154.644H140.155C140.747 154.644 141.223 154.78 141.583 155.052C141.951 155.316 142.135 155.704 142.135 156.216C142.135 156.856 141.843 157.36 141.259 157.728C140.675 158.104 139.891 158.292 138.907 158.292C138.195 158.292 137.591 158.18 137.095 157.956C136.599 157.74 136.351 157.368 136.351 156.84C136.351 156.52 136.447 156.232 136.639 155.976C136.831 155.72 137.107 155.528 137.467 155.4C137.051 155.24 136.843 154.928 136.843 154.464C136.843 154.2 136.915 153.968 137.059 153.768C137.203 153.56 137.407 153.408 137.671 153.312C137.351 153.152 137.103 152.928 136.927 152.64C136.751 152.352 136.663 152.02 136.663 151.644C136.663 151.044 136.879 150.576 137.311 150.24C137.743 149.896 138.339 149.724 139.099 149.724C139.835 149.724 140.419 149.884 140.851 150.204C141.051 149.756 141.215 149.344 141.343 148.968H142.327C141.975 149.632 141.623 150.196 141.271 150.66C141.455 150.94 141.547 151.276 141.547 151.668C141.547 152.268 141.335 152.744 140.911 153.096C140.487 153.448 139.895 153.624 139.135 153.624ZM137.251 156.648C137.251 156.952 137.395 157.172 137.683 157.308C137.979 157.452 138.423 157.524 139.015 157.524C139.751 157.524 140.303 157.424 140.671 157.224C141.039 157.024 141.223 156.744 141.223 156.384C141.223 155.824 140.779 155.544 139.891 155.544H138.319C137.975 155.624 137.711 155.764 137.527 155.964C137.343 156.164 137.251 156.392 137.251 156.648ZM137.587 151.632C137.587 152.48 138.091 152.904 139.099 152.904C140.115 152.904 140.623 152.48 140.623 151.632C140.623 150.84 140.115 150.444 139.099 150.444C138.555 150.444 138.167 150.544 137.935 150.744C137.703 150.944 137.587 151.24 137.587 151.632ZM143.529 147.156H144.465V150.744C144.921 150.064 145.609 149.724 146.529 149.724C147.097 149.724 147.553 149.908 147.897 150.276C148.249 150.644 148.425 151.172 148.425 151.86V156H147.489V152.052C147.489 151.532 147.381 151.156 147.165 150.924C146.957 150.684 146.621 150.564 146.157 150.564C145.589 150.564 145.165 150.74 144.885 151.092C144.605 151.444 144.465 151.904 144.465 152.472V156H143.529V147.156ZM152.78 156.12C152.188 156.12 151.74 155.944 151.436 155.592C151.132 155.24 150.98 154.72 150.98 154.032V150.6H149.756V149.844H150.98V148.236H151.916V149.844H154.052V150.6H151.916V153.84C151.916 154.392 152 154.776 152.168 154.992C152.344 155.208 152.596 155.316 152.924 155.316C153.18 155.316 153.388 155.236 153.548 155.076C153.708 154.908 153.792 154.668 153.8 154.356L154.604 154.452C154.604 154.988 154.428 155.4 154.076 155.688C153.732 155.976 153.3 156.12 152.78 156.12ZM157.675 156.12C157.091 156.12 156.619 155.992 156.259 155.736C155.899 155.472 155.695 155.076 155.647 154.548L156.499 154.416C156.547 154.736 156.659 154.972 156.835 155.124C157.019 155.268 157.307 155.34 157.699 155.34C158.131 155.34 158.467 155.26 158.707 155.1C158.947 154.932 159.067 154.692 159.067 154.38C159.067 154.124 159.003 153.92 158.875 153.768C158.747 153.616 158.587 153.5 158.395 153.42C158.203 153.34 157.939 153.252 157.603 153.156C157.227 153.052 156.919 152.952 156.679 152.856C156.447 152.752 156.247 152.592 156.079 152.376C155.919 152.16 155.839 151.868 155.839 151.5C155.839 151.116 155.939 150.792 156.139 150.528C156.347 150.256 156.611 150.056 156.931 149.928C157.259 149.792 157.607 149.724 157.975 149.724C158.479 149.724 158.911 149.852 159.271 150.108C159.639 150.356 159.851 150.708 159.907 151.164L159.079 151.308C158.983 151.036 158.843 150.836 158.659 150.708C158.475 150.58 158.195 150.516 157.819 150.516C157.491 150.516 157.235 150.588 157.051 150.732C156.867 150.868 156.775 151.064 156.775 151.32C156.775 151.536 156.835 151.712 156.955 151.848C157.075 151.976 157.223 152.08 157.399 152.16C157.575 152.232 157.819 152.316 158.131 152.412C158.539 152.54 158.863 152.664 159.103 152.784C159.351 152.896 159.563 153.076 159.739 153.324C159.915 153.564 160.003 153.888 160.003 154.296C160.003 154.904 159.779 155.36 159.331 155.664C158.883 155.968 158.331 156.12 157.675 156.12ZM164.459 149.844H165.311L165.359 150.948C165.543 150.572 165.787 150.276 166.091 150.06C166.403 149.836 166.767 149.724 167.183 149.724C167.711 149.724 168.103 149.888 168.359 150.216C168.623 150.544 168.735 151.016 168.695 151.632L167.831 151.836C167.831 151.404 167.771 151.088 167.651 150.888C167.539 150.688 167.315 150.588 166.979 150.588C166.515 150.588 166.147 150.792 165.875 151.2C165.603 151.608 165.443 152.116 165.395 152.724V156H164.459V149.844ZM169.619 152.88C169.619 151.904 169.867 151.136 170.363 150.576C170.867 150.008 171.563 149.724 172.451 149.724C172.987 149.724 173.459 149.844 173.867 150.084C174.275 150.316 174.591 150.652 174.815 151.092C175.039 151.532 175.151 152.048 175.151 152.64V153.144H170.591C170.623 153.856 170.803 154.396 171.131 154.764C171.467 155.132 171.931 155.316 172.523 155.316C173.547 155.316 174.103 154.92 174.191 154.128H175.103C175.007 154.768 174.735 155.26 174.287 155.604C173.839 155.948 173.227 156.12 172.451 156.12C171.547 156.12 170.847 155.844 170.351 155.292C169.863 154.74 169.619 153.936 169.619 152.88ZM174.215 152.424C174.183 151.792 174.007 151.316 173.687 150.996C173.375 150.676 172.971 150.516 172.475 150.516C171.915 150.516 171.479 150.68 171.167 151.008C170.855 151.336 170.667 151.808 170.603 152.424H174.215ZM178.488 156.12C177.904 156.12 177.432 155.992 177.072 155.736C176.712 155.472 176.508 155.076 176.46 154.548L177.312 154.416C177.36 154.736 177.472 154.972 177.648 155.124C177.832 155.268 178.12 155.34 178.512 155.34C178.944 155.34 179.28 155.26 179.52 155.1C179.76 154.932 179.88 154.692 179.88 154.38C179.88 154.124 179.816 153.92 179.688 153.768C179.56 153.616 179.4 153.5 179.208 153.42C179.016 153.34 178.752 153.252 178.416 153.156C178.04 153.052 177.732 152.952 177.492 152.856C177.26 152.752 177.06 152.592 176.892 152.376C176.732 152.16 176.652 151.868 176.652 151.5C176.652 151.116 176.752 150.792 176.952 150.528C177.16 150.256 177.424 150.056 177.744 149.928C178.072 149.792 178.42 149.724 178.788 149.724C179.292 149.724 179.724 149.852 180.084 150.108C180.452 150.356 180.664 150.708 180.72 151.164L179.892 151.308C179.796 151.036 179.656 150.836 179.472 150.708C179.288 150.58 179.008 150.516 178.632 150.516C178.304 150.516 178.048 150.588 177.864 150.732C177.68 150.868 177.588 151.064 177.588 151.32C177.588 151.536 177.648 151.712 177.768 151.848C177.888 151.976 178.036 152.08 178.212 152.16C178.388 152.232 178.632 152.316 178.944 152.412C179.352 152.54 179.676 152.664 179.916 152.784C180.164 152.896 180.376 153.076 180.552 153.324C180.728 153.564 180.816 153.888 180.816 154.296C180.816 154.904 180.592 155.36 180.144 155.664C179.696 155.968 179.144 156.12 178.488 156.12ZM182.182 152.88C182.182 151.904 182.43 151.136 182.926 150.576C183.43 150.008 184.126 149.724 185.014 149.724C185.55 149.724 186.022 149.844 186.43 150.084C186.838 150.316 187.154 150.652 187.378 151.092C187.602 151.532 187.714 152.048 187.714 152.64V153.144H183.154C183.186 153.856 183.366 154.396 183.694 154.764C184.03 155.132 184.494 155.316 185.086 155.316C186.11 155.316 186.666 154.92 186.754 154.128H187.666C187.57 154.768 187.298 155.26 186.85 155.604C186.402 155.948 185.79 156.12 185.014 156.12C184.11 156.12 183.41 155.844 182.914 155.292C182.426 154.74 182.182 153.936 182.182 152.88ZM186.778 152.424C186.746 151.792 186.57 151.316 186.25 150.996C185.938 150.676 185.534 150.516 185.038 150.516C184.478 150.516 184.042 150.68 183.73 151.008C183.418 151.336 183.23 151.808 183.166 152.424H186.778ZM189.466 149.844H190.318L190.366 150.948C190.55 150.572 190.794 150.276 191.098 150.06C191.41 149.836 191.774 149.724 192.19 149.724C192.718 149.724 193.11 149.888 193.366 150.216C193.63 150.544 193.742 151.016 193.702 151.632L192.838 151.836C192.838 151.404 192.778 151.088 192.658 150.888C192.546 150.688 192.322 150.588 191.986 150.588C191.522 150.588 191.154 150.792 190.882 151.2C190.61 151.608 190.45 152.116 190.402 152.724V156H189.466V149.844ZM194.416 149.844H195.448L196.684 153.36L197.284 155.088L197.872 153.36L199.108 149.844H200.08L197.764 156H196.756L194.416 149.844ZM200.685 152.88C200.685 151.904 200.933 151.136 201.429 150.576C201.933 150.008 202.629 149.724 203.517 149.724C204.053 149.724 204.525 149.844 204.933 150.084C205.341 150.316 205.657 150.652 205.881 151.092C206.105 151.532 206.217 152.048 206.217 152.64V153.144H201.657C201.689 153.856 201.869 154.396 202.197 154.764C202.533 155.132 202.997 155.316 203.589 155.316C204.613 155.316 205.169 154.92 205.257 154.128H206.169C206.073 154.768 205.801 155.26 205.353 155.604C204.905 155.948 204.293 156.12 203.517 156.12C202.613 156.12 201.913 155.844 201.417 155.292C200.929 154.74 200.685 153.936 200.685 152.88ZM205.281 152.424C205.249 151.792 205.073 151.316 204.753 150.996C204.441 150.676 204.037 150.516 203.541 150.516C202.981 150.516 202.545 150.68 202.233 151.008C201.921 151.336 201.733 151.808 201.669 152.424H205.281ZM210.202 156.12C209.714 156.12 209.274 156 208.882 155.76C208.498 155.52 208.194 155.168 207.97 154.704C207.754 154.232 207.646 153.664 207.646 153C207.646 152.296 207.766 151.7 208.006 151.212C208.254 150.716 208.586 150.344 209.002 150.096C209.426 149.848 209.898 149.724 210.418 149.724C211.122 149.724 211.622 149.884 211.918 150.204V147.156H212.854V156H211.978L211.954 155.316C211.538 155.852 210.954 156.12 210.202 156.12ZM208.606 152.94C208.606 153.716 208.75 154.308 209.038 154.716C209.334 155.124 209.738 155.328 210.25 155.328C210.61 155.328 210.934 155.228 211.222 155.028C211.51 154.82 211.742 154.54 211.918 154.188V151.56C211.87 151.176 211.714 150.908 211.45 150.756C211.186 150.596 210.834 150.516 210.394 150.516C209.794 150.516 209.346 150.732 209.05 151.164C208.754 151.588 208.606 152.18 208.606 152.94ZM215.628 155.16V156.36H214.596V155.16H215.628Z" fill="#F5F5F5"/>
</svg>
